<svg width="41" height="51" viewBox="0 0 41 51" fill="none" xmlns="http://www.w3.org/2000/svg">
<g clip-path="url(#clip0_126_737)">
<path d="M12.663 39.2154C11.3413 38.3159 9.67046 37.8209 7.95773 37.8209C3.79541 37.8209 0.40979 40.678 0.40979 44.1898C0.40979 47.7016 3.79541 50.5631 7.95773 50.5631C12.1201 50.5631 15.5057 47.7038 15.5057 44.1898C15.5057 44.0702 15.5015 43.9518 15.4942 43.8333C15.4942 43.8322 15.4942 43.8311 15.4942 43.83C15.4868 43.7127 15.4742 43.5965 15.4596 43.4803C15.4596 43.478 15.4596 43.4758 15.4596 43.4736C15.4438 43.3585 15.425 43.2445 15.403 43.1305C15.403 43.1272 15.4019 43.1249 15.4009 43.1216C15.3778 43.0087 15.3516 42.897 15.3222 42.7864C15.3222 42.783 15.3202 42.7786 15.3191 42.7752C15.2898 42.6646 15.2562 42.5551 15.2195 42.4467C15.2185 42.4423 15.2164 42.4378 15.2153 42.4333C15.1786 42.326 15.1388 42.2188 15.0958 42.1126C15.0937 42.1082 15.0917 42.1026 15.0896 42.0981C15.0466 41.9931 14.9994 41.8892 14.9501 41.7864C14.948 41.7808 14.9449 41.7752 14.9428 41.7696C14.8935 41.6679 14.8401 41.5663 14.7835 41.4668C14.7803 41.4612 14.7772 41.4556 14.7741 41.4501C14.7185 41.3506 14.6588 41.2534 14.5969 41.1562C14.5927 41.1495 14.5896 41.1439 14.5854 41.1372C14.5235 41.0411 14.4575 40.9472 14.3894 40.8534C14.3841 40.8467 14.3799 40.84 14.3757 40.8344C14.3076 40.7417 14.2363 40.6512 14.1619 40.5606C14.1567 40.5539 14.1514 40.5472 14.1451 40.5405C14.0707 40.4511 13.9942 40.364 13.9145 40.278C13.9083 40.2713 13.902 40.2646 13.8957 40.2567C13.816 40.1718 13.7332 40.088 13.6483 40.0053C13.641 39.9986 13.6336 39.9919 13.6273 39.9841C13.5424 39.9025 13.4544 39.8232 13.3632 39.745C13.3548 39.7383 13.3475 39.7316 13.3391 39.7238C13.2479 39.6467 13.1546 39.5707 13.0592 39.4958C13.0508 39.4891 13.0414 39.4824 13.033 39.4757C12.9366 39.402 12.8381 39.3305 12.7374 39.2601C12.7311 39.2556 12.7259 39.2511 12.7196 39.2478H12.7144L12.6641 39.2131L12.663 39.2154Z" fill="#34C759"/>
<path d="M7.95783 50.5631C3.79551 50.5631 0.409889 47.7038 0.409889 44.1898C0.409889 40.6757 3.79551 37.8209 7.95783 37.8209C9.67056 37.8209 11.3414 38.3159 12.6631 39.2154L12.7134 39.25H12.7187C12.704 39.2399 12.6904 39.2299 12.6757 39.2198L11.6548 38.5282L12.8329 38.8232C12.8329 38.8232 12.8455 38.8265 12.8549 38.8276C11.4734 37.8969 9.73555 37.384 7.95888 37.384C3.5712 37.384 0.00109863 40.4366 0.00109863 44.1898C0.00109863 47.9429 3.5712 51 7.95888 51C12.3466 51 15.9146 47.9463 15.9167 44.1931L15.5068 44.1898C15.5068 47.7038 12.1212 50.5631 7.95888 50.5631H7.95783Z" fill="#34C759"/>
<path d="M24.8073 32.67C24.8073 36.1841 28.1929 39.0433 32.3553 39.0433C36.5176 39.0433 39.899 36.1841 39.899 32.67C39.899 30.8208 38.9473 29.0644 37.287 27.8532C35.9222 26.852 34.1707 26.3 32.3542 26.3C28.1919 26.3 24.8063 29.1571 24.8063 32.67H24.8073Z" fill="#34C759"/>
<path d="M32.3563 39.0433C28.1939 39.0433 24.8083 36.184 24.8083 32.67C24.8083 29.156 28.1939 26.3 32.3563 26.3C34.1717 26.3 35.9243 26.852 37.289 27.8531L37.5039 27.4822C37.5039 27.4822 37.506 27.4833 37.5081 27.4844C36.0773 26.4397 34.2493 25.8643 32.3573 25.8643C27.9696 25.8643 24.3995 28.9168 24.3995 32.67C24.3995 36.4232 27.9696 39.4802 32.3573 39.4802C36.745 39.4802 40.3078 36.4276 40.3109 32.6745L39.9021 32.6711C39.9021 36.1852 36.5175 39.0444 32.3584 39.0444L32.3563 39.0433Z" fill="#34C759"/>
<path d="M40.0499 0.588884C39.8172 0.420166 39.5352 0.38888 39.2753 0.502849L14.6483 11.312C14.3411 11.4506 14.1409 11.7668 14.1409 12.1199L14.0896 29.5929L14.1326 36.859C14.1902 37.9271 14.012 38.6556 13.6022 39.0232C13.5204 39.097 13.4366 39.1495 13.3538 39.1864C14.3705 39.9875 15.1137 40.9853 15.5298 42.087L15.774 21.3905C15.7792 20.9357 16.035 20.5223 16.4249 20.3379L36.8361 10.8707C37.1684 10.7165 37.551 10.7478 37.8571 10.9556C38.1621 11.1612 38.3508 11.5143 38.3623 11.8986L38.7952 26.0744C38.8057 26.2129 38.8843 27.5258 38.29 27.9347C38.2459 27.9649 38.1998 27.9895 38.1527 28.0085C38.9692 28.7515 39.575 29.6364 39.9325 30.5974L40.4083 1.32633C40.4125 1.02577 40.2815 0.756486 40.0488 0.587767L40.0499 0.588884Z" fill="#34C759"/>
<path d="M40.2805 0.227928C39.9378 -0.0212392 39.5028 -0.069285 39.1192 0.0994338L14.4911 10.9097C14.0299 11.1164 13.7322 11.5924 13.7322 12.1198L13.6809 29.5951L13.7238 36.869V36.8801C13.7878 38.0343 13.5498 38.5014 13.3392 38.6902C13.1452 38.8634 12.9304 38.8433 12.8539 38.8288C12.8444 38.8265 12.8371 38.8254 12.8318 38.8243L11.6537 38.5293L12.6746 39.221C12.6893 39.231 12.7029 39.2411 12.7176 39.2511C12.7239 39.2556 12.7291 39.2601 12.7354 39.2634C12.836 39.3338 12.9356 39.4053 13.031 39.4791C13.0394 39.4858 13.0488 39.4925 13.0572 39.4992C13.1526 39.5729 13.2469 39.6489 13.3371 39.7271C13.3454 39.7338 13.3528 39.7405 13.3612 39.7483C13.4513 39.8266 13.5394 39.9059 13.6253 39.9875C13.6327 39.9942 13.64 40.0009 13.6463 40.0087C13.7312 40.0914 13.814 40.1741 13.8936 40.2601C13.8999 40.2668 13.9062 40.2735 13.9125 40.2813C13.9922 40.3674 14.0687 40.4545 14.1431 40.5439C14.1484 40.5506 14.1536 40.5573 14.1599 40.564C14.2343 40.6534 14.3056 40.745 14.3737 40.8378C14.379 40.8445 14.3831 40.8512 14.3873 40.8568C14.4555 40.9495 14.5205 41.0445 14.5834 41.1406C14.5875 41.1461 14.5907 41.1528 14.5949 41.1595C14.6567 41.2556 14.7165 41.354 14.772 41.4534C14.7752 41.459 14.7783 41.4646 14.7815 41.4702C14.837 41.5696 14.8905 41.6713 14.9408 41.773C14.9429 41.7786 14.946 41.7841 14.9481 41.7897C14.9974 41.8925 15.0445 41.9964 15.0875 42.1015C15.0896 42.1059 15.0917 42.1115 15.0938 42.116C15.1368 42.2221 15.1766 42.3283 15.2133 42.4367C15.2144 42.4411 15.2165 42.4456 15.2175 42.4501C15.2542 42.5585 15.2877 42.668 15.3171 42.7786C15.3171 42.7819 15.3192 42.7864 15.3202 42.7898C15.3496 42.9004 15.3758 43.0132 15.3988 43.125C15.3988 43.1283 15.3999 43.1305 15.4009 43.1339C15.4229 43.2479 15.4429 43.3618 15.4575 43.4769C15.4575 43.4792 15.4575 43.4814 15.4575 43.4836C15.4733 43.5998 15.4848 43.716 15.4921 43.8334C15.4921 43.8345 15.4921 43.8356 15.4921 43.8367C15.4995 43.9551 15.5037 44.0736 15.5037 44.1931L15.9135 44.1965L16.1818 21.4005C16.185 21.1155 16.3453 20.8574 16.5885 20.7423L36.9976 11.2762C37.2094 11.179 37.4421 11.198 37.636 11.3287C37.8288 11.4595 37.9441 11.674 37.9515 11.9165L38.3854 26.1022C38.419 26.5626 38.3624 27.3693 38.0668 27.5727C37.94 27.6598 37.7502 27.6308 37.505 27.4877C37.5039 27.4877 37.5029 27.4866 37.5008 27.4855L37.2859 27.8565C38.9452 29.0677 39.898 30.823 39.898 32.6733L40.3067 32.6767L40.8162 1.33857C40.8224 0.894982 40.6222 0.480448 40.2784 0.23128L40.2805 0.227928ZM39.9336 30.5995C39.5751 29.6386 38.9703 28.7537 38.1538 28.0107C38.202 27.9917 38.2471 27.9671 38.2911 27.9369C38.8865 27.528 38.8068 26.214 38.7963 26.0765L38.3634 11.9008C38.3519 11.5164 38.1632 11.1634 37.8582 10.9578C37.5521 10.7511 37.1706 10.7198 36.8373 10.8729L16.4261 20.3401C16.0351 20.5245 15.7793 20.9379 15.7751 21.3926L15.5309 42.0892C15.1148 40.9864 14.3716 39.9897 13.3549 39.1886C13.4377 39.1506 13.5215 39.0981 13.6033 39.0254C14.0131 38.6578 14.1913 37.9304 14.1337 36.8611L14.0907 29.5951L14.1421 12.122C14.1421 11.7701 14.3423 11.4528 14.6494 11.3142L39.2753 0.502795C39.5353 0.388826 39.8172 0.420111 40.0499 0.58883C40.2826 0.757549 40.4137 1.02683 40.4095 1.32739L39.9336 30.5984V30.5995Z" fill="#34C759"/>
</g>
<defs>
<clipPath id="clip0_126_737">
<rect width="40.8193" height="51" fill="white"/>
</clipPath>
</defs>
</svg>
