<svg width="57" height="58" viewBox="0 0 57 58" fill="none" xmlns="http://www.w3.org/2000/svg">
<g clip-path="url(#clip0_126_730)">
<path d="M51.2967 34.2582C51.3674 33.5841 51.4431 32.9878 51.4902 32.3901C51.922 27.0219 50.7545 22.0423 48.2346 17.4379C45.5336 12.5011 41.6974 8.93124 36.7669 6.78448C33.4791 5.35331 30.0486 4.72885 26.5077 5.09602C20.1057 5.76069 14.7683 8.71148 10.6119 14.0288C7.93949 17.4486 6.24099 21.3991 5.45811 25.8025C4.97052 28.5455 4.9271 31.294 5.31791 34.0531C5.32412 34.0933 5.34397 34.1309 5.37126 34.2086C5.52387 34.1242 5.66283 34.0397 5.80799 33.9687C6.32411 33.7141 6.76084 33.9004 6.97175 34.4672C7.9184 37.0026 8.85512 39.542 9.81045 42.0747C11.4581 46.4406 13.1157 50.8011 14.7707 55.1629C15.1479 56.1559 15.1256 56.2953 14.2931 56.8608C12.1764 58.2987 9.98415 58.3308 7.75215 57.2079C5.6802 56.1653 4.16283 54.5304 3.30055 52.2269C2.34646 49.6781 1.34274 47.1468 0.47426 44.5631C-0.417796 41.9112 -0.0530336 39.4026 1.61818 37.1848C1.91346 36.7935 2.02016 36.4639 1.90229 35.9574C1.29808 33.3617 1.02637 30.7191 1.13431 28.0417C1.33654 23.0205 2.63554 18.3545 5.0797 14.073C6.68888 11.2562 8.65909 8.76508 11.0449 6.68398C13.6566 4.40456 16.5747 2.71208 19.7533 1.53551C21.7968 0.779725 23.8935 0.306688 26.0412 0.10836C31.4158 -0.390138 36.463 0.823947 41.2123 3.54827C45.458 5.98314 48.819 9.43912 51.3748 13.8278C53.1875 16.9421 54.4356 20.2975 55.0746 23.9063C55.5348 26.5046 55.6614 29.1244 55.3822 31.7643C55.2222 33.2786 55.0026 34.7794 54.6589 36.2562C54.6031 36.4987 54.649 36.6756 54.7755 36.8713C55.1378 37.426 55.5423 37.9621 55.8239 38.5624C56.8041 40.6502 56.8202 42.7876 56.0088 44.9504C55.0746 47.4416 54.1688 49.9461 53.2234 52.4333C52.4641 54.4299 51.1279 55.8745 49.386 56.8903C48.1887 57.5884 46.9207 58.0253 45.5398 57.9878C44.3872 57.9569 43.3302 57.6005 42.3699 56.9157C42.1999 56.7951 42.0498 56.6397 41.8972 56.4923C41.6143 56.2189 41.592 55.9026 41.7347 55.5288C42.721 52.9304 43.6974 50.328 44.6788 47.727C46.1974 43.7042 47.7185 39.6814 49.2371 35.6572C49.3761 35.2873 49.4952 34.9094 49.6403 34.5423C49.9369 33.7985 50.3227 33.6632 50.9704 34.0598C51.0522 34.1094 51.1341 34.1577 51.2954 34.2555L51.2967 34.2582ZM6.80922 52.1103C6.7658 51.9642 6.71121 51.7351 6.63056 51.518C5.34273 48.0151 4.05117 44.5136 2.75837 41.0134C2.67276 40.7802 2.58219 40.5457 2.46557 40.3299C2.30304 40.0298 1.99659 39.9333 1.72363 40.0659C1.51024 40.1705 1.375 40.4881 1.4482 40.7869C1.51024 41.0428 1.60453 41.2908 1.6951 41.5387C2.99782 45.0951 4.30303 48.6503 5.61072 52.2054C5.66531 52.3542 5.73727 52.5029 5.83032 52.6249C5.99533 52.838 6.22238 52.905 6.46059 52.7991C6.69756 52.6932 6.8055 52.4748 6.80798 52.1116L6.80922 52.1103ZM49.8947 52.1559C49.9269 52.4721 50.0932 52.7441 50.3215 52.8192C50.5423 52.8916 50.8388 52.7562 50.9691 52.4694C51.1006 52.18 51.1838 51.8637 51.2929 51.5609C52.5361 48.1223 53.7805 44.6851 55.0249 41.2479C55.0795 41.0964 55.1428 40.9477 55.1813 40.7909C55.2557 40.4921 55.1068 40.1611 54.8636 40.0539C54.6217 39.9467 54.3314 40.0365 54.1775 40.2844C54.1031 40.405 54.0497 40.5443 54.0001 40.681C52.6738 44.3367 51.3488 47.9923 50.0262 51.6507C49.9679 51.8128 49.9381 51.987 49.8947 52.1559Z" fill="#FFCC00"/>
<path d="M44.315 29.5655C46.114 29.5401 47.4006 30.5759 47.7381 32.0714C47.8857 32.724 47.8113 33.3605 47.5718 33.9783C47.078 35.2594 46.5855 36.5418 46.0967 37.8256C44.6922 41.5121 43.2902 45.1999 41.8858 48.8863C41.1426 50.8388 40.4019 52.7926 39.6476 54.7397C39.0706 56.2285 37.9391 57.0419 36.5657 56.9856C34.5359 56.9025 33.0297 54.8509 33.5148 52.7189C33.7319 51.7661 34.1178 50.8549 34.4689 49.9436C36.4069 44.9104 38.3597 39.8839 40.3051 34.8547C40.7009 33.8322 41.0607 32.7924 41.4937 31.79C42.1091 30.3655 43.1674 29.6111 44.3138 29.5655H44.315Z" fill="#FFCC00"/>
<path d="M12.6562 29.5789C13.284 29.5896 14.2394 30.1886 14.8994 31.3196C15.124 31.7042 15.2952 32.129 15.459 32.5511C16.7257 35.8061 17.9838 39.0651 19.2443 42.3241C20.4465 45.433 21.6438 48.5432 22.851 51.6495C23.2902 52.7778 23.387 53.8914 22.8783 55.0331C22.1227 56.7296 19.6798 57.7668 17.9304 56.2231C17.4887 55.8331 17.2418 55.3145 17.0309 54.7637C16.186 52.5486 15.3411 50.3349 14.4937 48.1211C12.7406 43.5448 10.9863 38.9686 9.22945 34.3937C8.96891 33.7156 8.76916 33.0268 8.89447 32.2831C9.17362 30.6187 10.4106 29.5561 12.655 29.5802L12.6562 29.5789Z" fill="#FFCC00"/>
</g>
<defs>
<clipPath id="clip0_126_730">
<rect width="56.5904" height="58" fill="white"/>
</clipPath>
</defs>
</svg>
