<svg width="43" height="35" viewBox="0 0 43 35" fill="none" xmlns="http://www.w3.org/2000/svg">
<path d="M17.9708 0.00517881C20.3857 -0.00126981 22.7993 -0.00126975 25.213 0.00283392C25.344 1.7381 25.1719 3.52437 24.4918 5.1459C24.0563 6.13664 23.3816 7.15728 22.2883 7.53717C22.0703 7.64914 21.9163 7.88129 21.9157 8.1234C21.8957 8.70788 21.9132 9.29412 21.906 9.88036C21.703 9.87684 21.5007 9.87567 21.2978 9.87743C21.2996 9.31875 21.3014 8.75889 21.2971 8.2002C21.3002 8.02726 21.2512 7.85139 21.1329 7.71949C20.9426 7.48382 20.6043 7.46858 20.3688 7.29388C19.4748 6.71878 18.9228 5.77142 18.5591 4.81526C18.0035 3.27697 17.8669 1.62495 17.9708 0.00517881ZM20.0722 2.29151C20.219 2.54183 20.3724 2.78805 20.5548 3.01551C20.7674 2.89651 20.9692 2.76226 21.1715 2.62625C21.1914 3.54547 21.157 4.46704 21.1914 5.38509C21.3098 5.5891 21.5774 5.48827 21.7707 5.51406C21.9114 5.50233 22.1253 5.56565 22.1838 5.38978C22.2032 4.19092 22.1748 2.99089 22.1881 1.79203C22.1796 1.65603 22.2177 1.49012 22.0938 1.3928C21.8595 1.37287 21.6233 1.38577 21.389 1.38167C20.9438 1.67654 20.5071 1.98256 20.0722 2.29151Z" fill="#EFB082"/>
<path d="M15.3263 1.50708C15.8405 1.52047 16.356 1.51115 16.8702 1.51115C16.902 2.64019 17.0703 3.77213 17.4162 4.85635C16.2837 4.04799 15.5532 2.81304 15.3263 1.50708Z" fill="#EFB082"/>
<path d="M26.3381 1.512C26.8472 1.50507 27.3563 1.50681 27.8659 1.50911C27.6348 2.81627 26.8768 4.02416 25.776 4.85635C26.1285 3.7737 26.311 2.64256 26.3381 1.512Z" fill="#EFB082"/>
<path d="M4.36548 9.04972C6.56062 9.03529 8.75636 9.04972 10.9521 9.04452C11.0406 10.5889 10.8454 12.1691 10.223 13.6062C9.82363 14.458 9.23151 15.3433 8.2594 15.6619C8.04425 15.7421 7.91334 15.9684 7.93213 16.1848C7.93031 16.6511 7.93455 17.1174 7.93758 17.5837C7.77273 17.582 7.60788 17.5814 7.44425 17.5803C7.44546 17.1174 7.43698 16.6534 7.43758 16.19C7.44061 15.9735 7.3188 15.7427 7.09395 15.6729C6.26971 15.3935 5.70184 14.6987 5.32366 13.9778C4.51397 12.4646 4.29882 10.728 4.36548 9.04972Z" fill="#EFB082"/>
<path d="M11.6688 12.8949C11.9283 11.9649 12.0466 11.0058 12.115 10.048C12.4889 10.0655 12.8623 10.0546 13.2363 10.0558C13.0483 11.1294 12.482 12.1351 11.6688 12.8949Z" fill="#EFB082"/>
<path d="M32.401 14.0717C34.428 14.063 36.4543 14.0728 38.4806 14.067C38.5354 15.5325 38.3577 17.0387 37.7066 18.3875C37.343 19.0643 36.8665 19.8019 36.0476 20.0498C35.8 20.1339 35.621 20.369 35.6254 20.6162C35.616 21.0562 35.6304 21.4967 35.6229 21.9378C35.5082 21.9372 35.3946 21.9372 35.2818 21.9372C35.2693 21.4718 35.2961 21.0051 35.2743 20.5408C35.2687 20.3191 35.0847 20.138 34.867 20.0718C34.1916 19.8432 33.7226 19.2958 33.3852 18.7294C32.5975 17.2993 32.348 15.6631 32.401 14.0717ZM33.8729 15.3578C33.8829 15.496 33.8374 15.6811 33.9989 15.7624C34.4261 15.8094 34.8595 15.7716 35.2892 15.7972C35.0155 16.0531 34.7304 16.3004 34.4916 16.5865C34.5589 16.7856 34.63 16.9853 34.7373 17.1693C35.1346 17.2186 35.7052 17.0143 35.956 17.4055C36.1406 17.7618 35.7015 18.0816 35.3398 18.0242C34.9774 18.0561 34.746 17.77 34.6774 17.4734C34.3544 17.5123 34.0313 17.5436 33.7058 17.5616C33.6895 17.9905 33.8947 18.4276 34.2733 18.6806C35.0816 19.2024 36.4112 19.0614 36.8939 18.207C37.3093 17.525 36.9183 16.5447 36.0944 16.3306C36.3713 16.0688 36.6563 15.814 36.9039 15.5285C36.8777 15.3451 36.8709 15.1605 36.8391 14.9782C36.7917 14.8424 36.627 14.8715 36.5091 14.8616C35.679 14.8598 34.8502 14.8297 34.0213 14.8436C33.8118 14.9399 33.8866 15.1843 33.8729 15.3578Z" fill="#EFB082"/>
<path d="M30.4785 15.0747C30.7725 15.0765 31.0659 15.0765 31.3599 15.0717C31.4047 15.9169 31.5123 16.7597 31.6976 17.5836C31.0682 16.901 30.6433 16.0192 30.4785 15.0747Z" fill="#EFB082"/>
<path d="M14.978 16.0795C19.2157 16.0725 23.4534 16.0807 27.6912 16.0766C27.6863 21.7695 27.6949 27.4618 27.6906 33.1548C23.4553 33.1589 19.2194 33.1589 14.9841 33.1548C14.9804 27.4636 14.9926 21.7719 14.978 16.0795ZM19.3545 21.2488C19.5379 21.5585 19.7353 21.86 19.9273 22.1656C20.2391 21.9834 20.5227 21.7613 20.8217 21.5603C20.8137 22.8332 20.8088 24.1067 20.8119 25.3802C20.8021 25.4684 20.8528 25.6153 20.9733 25.5965C21.249 25.5995 21.5241 25.5989 21.8004 25.6094C21.9068 25.6271 22.0327 25.5695 22.0388 25.4543C22.0217 23.7817 22.0327 22.108 22.0321 20.4349C22.0254 20.3144 22.0449 20.188 22.0021 20.0734C21.7215 19.9947 21.4177 20.0441 21.1279 20.0417C20.5203 20.4184 19.9505 20.8539 19.3545 21.2488Z" fill="#EFB082"/>
<path d="M5.92157 18.5935C7.08107 18.5858 8.24176 18.5882 9.40127 18.5929C9.40541 19.0374 9.40009 19.4831 9.40482 19.9282C8.24472 19.9246 7.08462 19.9258 5.92453 19.9276C5.92571 19.4831 5.92453 19.038 5.92157 18.5935Z" fill="#EFB082"/>
<path d="M1.39331 20.9449C5.62714 20.9443 9.86221 20.9518 14.0954 20.933C14.1078 21.38 14.0886 21.8263 14.1072 22.2727C9.869 22.2702 5.63147 22.2752 1.39331 22.2689C1.39887 21.827 1.39578 21.3856 1.39331 20.9449Z" fill="#EFB082"/>
<path d="M33.79 23.121C34.8896 23.1046 35.9898 23.1093 37.0893 23.1181C37.0985 23.4501 37.0967 23.7821 37.0961 24.1141C35.9934 24.1129 34.8902 24.1164 33.7875 24.1141C33.7924 23.7833 33.79 23.4519 33.79 23.121Z" fill="#EFB082"/>
<path d="M1.39331 23.2815C5.57317 23.278 9.75182 23.2745 13.9305 23.2815C13.9366 26.5735 13.9292 29.8649 13.9329 33.1563C9.75426 33.1598 5.57561 33.1563 1.39697 33.1557C1.39026 29.8643 1.39941 26.5723 1.39331 23.2815ZM5.97079 26.2177C5.86956 26.5033 5.72929 26.8532 5.90737 27.1335C6.2129 27.1247 6.51965 27.1493 6.82518 27.1311C6.95264 27.0346 6.90019 26.845 6.96606 26.7122C7.15999 26.2271 8.01743 26.2283 8.19672 26.7245C8.32113 27.0896 8.0156 27.4032 7.76495 27.6373C7.13559 28.1815 6.46233 28.6765 5.82199 29.209C5.88541 29.4886 5.67807 29.914 5.9836 30.0902C7.07644 30.0937 8.16989 30.0972 9.26212 30.089C9.28712 30.0726 9.33835 30.0398 9.36396 30.0235C9.41336 29.7438 9.38957 29.453 9.37433 29.1715C9.35542 29.1557 9.32005 29.1259 9.30115 29.1107C8.73277 29.0767 8.16013 29.1095 7.59054 29.0925C8.06682 28.7016 8.55653 28.3184 8.9578 27.8526C9.49325 27.2253 9.40787 26.1738 8.71752 25.6817C7.88082 25.0802 6.43793 25.2616 5.97079 26.2177Z" fill="#EFB082"/>
<path d="M28.7368 25.1262C32.8581 25.1219 36.98 25.1165 41.1013 25.1219C41.1013 25.5112 41.1037 25.9015 41.1013 26.2919C36.9812 26.2848 32.8624 26.294 28.7423 26.2908C28.7423 25.9015 28.7442 25.5133 28.7368 25.1262Z" fill="#EFB082"/>
<path d="M28.7368 27.3031C32.8585 27.2949 36.9807 27.299 41.1023 27.2966C41.095 29.2488 41.1072 31.2016 41.0944 33.1549C36.977 33.1537 32.8603 33.1561 28.7423 33.1579C28.7491 31.2057 28.7435 29.2541 28.7368 27.3031ZM33.3743 28.1579C33.3749 28.3969 33.3626 28.6365 33.3792 28.8767C33.373 28.9796 33.4991 29.066 33.6019 29.0518C34.0308 29.0565 34.461 29.0636 34.8917 29.0648C34.5748 29.334 34.3043 29.6487 33.977 29.9066C34.0498 30.1285 34.1538 30.3379 34.2627 30.5461C34.598 30.5786 34.9389 30.5218 35.2711 30.5828C35.6272 30.6567 35.7826 31.1069 35.5581 31.3802C35.1836 31.8659 34.2187 31.6594 34.1875 31.0134C33.8344 31.0383 33.4807 31.0537 33.1301 31.0921C33.1613 31.5464 33.3504 32.0156 33.7494 32.2829C34.5111 32.8082 35.7074 32.7651 36.3431 32.0652C36.7965 31.5819 36.8595 30.7987 36.4863 30.2551C36.3113 29.9865 36.0225 29.8191 35.7312 29.6895C36.0182 29.3925 36.3272 29.1145 36.6001 28.8045C36.5811 28.5845 36.5683 28.3638 36.5616 28.1438C36.3872 28.0278 36.1706 28.0627 35.9723 28.0586C35.1536 28.0556 34.3343 28.0609 33.515 28.0532C33.4801 28.0799 33.4091 28.1319 33.3743 28.1579Z" fill="#EFB082"/>
<path d="M0 34.1655C14.1642 34.1612 28.3284 34.1633 42.4926 34.1628C42.4969 34.4395 42.4963 34.7168 42.4926 34.9941C28.3296 35.0038 14.1666 34.9892 0.00365179 35C0.00426043 34.7217 0.00182591 34.4433 0 34.1655Z" fill="#EFB082"/>
<path d="M20.0287 2.39168C20.4578 2.09143 20.8885 1.79403 21.3277 1.50745C21.5589 1.51144 21.7918 1.49891 22.023 1.51828C22.1452 1.61285 22.1076 1.77409 22.116 1.90627C22.1029 3.07137 22.1309 4.23761 22.1118 5.40271C22.054 5.57363 21.8431 5.5121 21.7043 5.5235C21.5136 5.49843 21.2496 5.59642 21.1328 5.39815C21.0989 4.50595 21.1328 3.61033 21.1132 2.71699C20.9136 2.84917 20.7146 2.97964 20.5048 3.0953C20.3249 2.87424 20.1735 2.63495 20.0287 2.39168Z" fill="#030303"/>
<path d="M19.5062 21.3033C20.0858 20.9125 20.6405 20.4815 21.2326 20.1087C21.5141 20.111 21.8104 20.0622 22.083 20.1401C22.1252 20.2535 22.1062 20.3786 22.1127 20.4978C22.1133 22.1537 22.102 23.8101 22.1187 25.4654C22.1133 25.5794 21.9901 25.6364 21.8872 25.6189C21.6182 25.6084 21.3498 25.609 21.082 25.6061C20.9642 25.6247 20.9154 25.4793 20.9249 25.3921C20.9213 24.1317 20.9261 22.8714 20.9344 21.6116C20.6428 21.8105 20.3667 22.0304 20.0638 22.2107C19.8764 21.9082 19.6848 21.6098 19.5062 21.3033Z" fill="#030303"/>
<path d="M6.07668 26.1881C6.53146 25.2125 7.93375 25.0274 8.74725 25.6412C9.41845 26.1433 9.50147 27.2162 8.98146 27.8563C8.59072 28.3316 8.11459 28.7227 7.65151 29.1215C8.2059 29.1388 8.76208 29.1054 9.31469 29.14C9.33307 29.1555 9.36806 29.186 9.38584 29.2021C9.40126 29.4893 9.42379 29.786 9.37576 30.0714C9.35145 30.0882 9.30165 30.1216 9.27674 30.1383C8.21539 30.1467 7.15167 30.1431 6.08913 30.1395C5.79207 29.9598 5.99367 29.5257 5.932 29.2403C6.55517 28.697 7.20977 28.1919 7.82168 27.6366C8.06479 27.3977 8.36244 27.0777 8.24148 26.7051C8.06656 26.1988 7.23349 26.1976 7.04435 26.6926C6.98031 26.8281 7.03189 27.0216 6.90738 27.1201C6.61032 27.1386 6.31207 27.1135 6.01501 27.1225C5.84187 26.8365 5.97884 26.4794 6.07668 26.1881Z" fill="#030303"/>
<path d="M2.26416 10.048C2.64303 10.0492 3.02253 10.0516 3.4014 10.0486C3.44148 11.0074 3.55232 11.9705 3.83162 12.8949C2.9981 12.1447 2.47457 11.1212 2.26416 10.048Z" fill="#EFB082"/>
<path d="M39.5155 15.0764C39.8122 15.08 40.1083 15.0776 40.4056 15.0717C40.2392 16.0177 39.8012 16.8934 39.1865 17.5836C39.372 16.7632 39.4892 15.9213 39.5155 15.0764Z" fill="#EFB082"/>
<path d="M19.5124 10.8861C20.8967 10.8833 22.2816 10.8873 23.6671 10.8896C23.68 11.0548 23.6824 11.2206 23.6861 11.3875C22.2932 11.3835 20.8991 11.3858 19.5062 11.3841C19.5081 11.2183 19.5099 11.0525 19.5124 10.8861Z" fill="#EFB082"/>
<path d="M14.9798 13.9051C19.2155 13.9013 23.4524 13.8948 27.6881 13.9051C27.6869 14.2927 27.6875 14.6798 27.6918 15.0674C23.4543 15.0615 19.2167 15.0653 14.978 15.0718C14.978 14.682 14.9804 14.2938 14.9798 13.9051Z" fill="#EFB082"/>
<path d="M18.8223 12.3997C20.6723 12.3872 22.523 12.394 24.3743 12.3961C24.3767 12.5048 24.3791 12.6146 24.3828 12.7239C22.5248 12.7317 20.6675 12.7239 18.8096 12.7213C18.8132 12.6135 18.8174 12.5064 18.8223 12.3997Z" fill="#EFB082"/>
<path d="M33.9533 15.4273C33.9662 15.252 33.8924 15.0053 34.099 14.908C34.9162 14.8939 35.734 14.9244 36.5519 14.9262C36.6687 14.9361 36.831 14.9068 36.8778 15.044C36.9085 15.228 36.9153 15.4144 36.9417 15.5996C36.697 15.888 36.416 16.1453 36.1429 16.4096C36.9552 16.6259 37.3408 17.6159 36.9319 18.3046C36.4553 19.1673 35.1443 19.3098 34.3474 18.7828C33.9742 18.5273 33.7719 18.0859 33.7885 17.6528C34.1088 17.6346 34.428 17.603 34.7459 17.5637C34.8141 17.8632 35.0417 18.1522 35.3995 18.1199C35.7562 18.178 36.1891 17.855 36.007 17.4951C35.7592 17.1001 35.1966 17.3064 34.8049 17.2566C34.6992 17.0708 34.6297 16.8692 34.5633 16.6681C34.7982 16.3792 35.0798 16.1295 35.3491 15.871C34.9254 15.8452 34.4981 15.8833 34.0769 15.8358C33.9176 15.7538 33.9631 15.5668 33.9533 15.4273Z" fill="#020202"/>
<path d="M33.3389 28.2372C33.3744 28.2115 33.4465 28.1602 33.4826 28.1339C34.3144 28.1415 35.1469 28.1362 35.9794 28.1392C36.1809 28.1432 36.4003 28.1088 36.5775 28.2232C36.5844 28.4402 36.5974 28.6577 36.6167 28.8747C36.34 29.1804 36.0254 29.4545 35.7338 29.7474C36.0298 29.8751 36.3232 30.0402 36.5017 30.305C36.8803 30.8411 36.8163 31.6134 36.3556 32.0899C35.7096 32.78 34.4947 32.8226 33.7201 32.3046C33.3147 32.0409 33.1226 31.5784 33.0909 31.1304C33.4478 31.0925 33.8065 31.0773 34.1652 31.0528C34.1969 31.6898 35.1774 31.8934 35.5579 31.4145C35.7861 31.145 35.6288 30.7011 35.2663 30.6282C34.9287 30.5681 34.5824 30.6241 34.2417 30.592C34.1317 30.3867 34.0253 30.1802 33.9514 29.9614C34.284 29.7071 34.5594 29.3968 34.8808 29.1314C34.4431 29.1302 34.0061 29.1232 33.5702 29.1185C33.4658 29.1325 33.3383 29.0474 33.3439 28.9459C33.3271 28.7091 33.3396 28.4728 33.3389 28.2372Z" fill="#020202"/>
</svg>
