<svg width="37" height="35" viewBox="0 0 37 35" fill="none" xmlns="http://www.w3.org/2000/svg">
<path d="M18.2 35C13.3387 35 8.7685 33.1799 5.3307 29.8743C1.8929 26.5688 0 22.1744 0 17.5C0 12.8256 1.8929 8.43057 5.3307 5.12567C8.7678 1.82009 13.3387 0 18.2 0C23.0613 0 27.6315 1.82009 31.0693 5.12567C34.5071 8.43125 36.4 12.8256 36.4 17.5C36.4 22.1744 34.5071 26.5688 31.0693 29.8743C27.6315 33.1799 23.0613 35 18.2 35ZM18.2 2.94264C14.156 2.94264 10.3541 4.45713 7.49511 7.20616C4.63612 9.95519 3.06105 13.6109 3.06105 17.4993C3.06105 21.3878 4.63612 25.0435 7.49511 27.7925C10.3541 30.5415 14.1567 32.056 18.2 32.056C22.2433 32.056 26.0459 30.5415 28.9049 27.7925C31.7646 25.0428 33.339 21.3871 33.339 17.4993C33.339 13.6116 31.7639 9.95519 28.9049 7.20616C26.0452 4.45646 22.2433 2.94264 18.2 2.94264Z" fill="#EFB082"/>
<path d="M29.1175 17.8057L12.3564 8.50146V27.1105L29.1175 17.8057Z" fill="#EFB082"/>
</svg>
