<svg width="39" height="37" viewBox="0 0 39 37" fill="none" xmlns="http://www.w3.org/2000/svg">
<path d="M33.1558 29.775C31.4579 26.1629 28.1725 23.8513 24.1103 22.8439C22.64 23.6786 20.9273 24.1593 19.0998 24.1593C17.2723 24.1593 15.5597 23.6786 14.0893 22.8439C10.0278 23.852 6.74167 26.1629 5.04376 29.775C4.73156 30.4391 11.9157 35.9926 19.0998 35.9926C26.2839 35.9926 33.4673 30.4391 33.1558 29.775Z" fill="#EFB082"/>
<path d="M24.3042 19.9953C27.1782 17.2318 27.1782 12.7513 24.3042 9.98787C21.4302 7.2244 16.7705 7.2244 13.8965 9.98787C11.0225 12.7513 11.0225 17.2318 13.8965 19.9953C16.7705 22.7588 21.4302 22.7588 24.3042 19.9953Z" fill="#EFB082"/>
<path d="M19.1005 36.7317C13.9986 36.7317 9.20233 34.8215 5.59444 31.3524C1.98655 27.8833 0 23.2715 0 18.3658C0 13.4602 1.98655 8.84769 5.59444 5.37927C9.20159 1.91014 13.9986 0 19.1005 0C24.2023 0 28.9986 1.91014 32.6065 5.37927C36.2144 8.84839 38.2009 13.4602 38.2009 18.3658C38.2009 23.2715 36.2144 27.8833 32.6065 31.3524C28.9986 34.8215 24.2023 36.7317 19.1005 36.7317ZM19.1005 3.08823C14.8564 3.08823 10.8664 4.67766 7.86594 7.56269C4.8655 10.4477 3.21249 14.2843 3.21249 18.3651C3.21249 22.4459 4.8655 26.2825 7.86594 29.1676C10.8664 32.0526 14.8571 33.642 19.1005 33.642C23.3438 33.642 27.3346 32.0526 30.335 29.1676C33.3362 26.2818 34.9884 22.4452 34.9884 18.3651C34.9884 14.285 33.3354 10.4477 30.335 7.56269C27.3338 4.67695 23.3438 3.08823 19.1005 3.08823Z" fill="#EFB082"/>
</svg>
