<svg width="390" height="812" viewBox="0 0 390 812" fill="none" xmlns="http://www.w3.org/2000/svg">
<g clip-path="url(#clip0_230_1323)">
<g opacity="0.1" clip-path="url(#clip1_230_1323)">
<mask id="mask0_230_1323" style="mask-type:luminance" maskUnits="userSpaceOnUse" x="-180" y="-93" width="433" height="433">
<path d="M111.223 339.783L252.783 48.5596L-38.4402 -93.0001L-180 198.223L111.223 339.783Z" fill="white"/>
</mask>
<g mask="url(#mask0_230_1323)">
<path d="M157.241 125.309C151.411 129.185 148.395 132.241 140.995 133.74C139.248 134.092 135.528 134.179 134.183 135.082C133.395 135.611 132.59 136.509 131.698 136.946C129.67 137.936 127.673 137.755 125.51 138.067C123.347 138.379 120.776 139.146 118.698 138.88C115.177 138.432 112.595 136.675 109.426 135.331C107.32 134.439 106.536 134.255 104.51 132.9C100.11 129.958 98.3017 127.79 95.7936 123.196C94.3734 120.595 93.2868 118.255 92.7328 115.324C92.2891 112.975 91.8776 110.844 91.4216 108.56C89.4565 98.7316 88.3748 88.147 90.4796 78.3667C92.4326 69.2766 97.9445 61.4845 102.676 53.5481C104.531 50.4342 104.875 48.3003 105.469 44.9114C105.65 43.8748 105.729 42.8109 105.968 41.7828C105.949 41.6961 105.032 40.7574 104.871 40.6244C101.618 37.941 97.822 35.825 94.0738 33.829C87.2843 30.2193 80.2354 26.361 73.2406 23.1608C68.672 21.0689 63.2919 19.3337 59.0197 16.6124C58.5 16.2824 58.0095 15.6605 57.383 15.285C56.2189 14.5902 55.0855 13.9845 53.9497 13.2777C50.0202 10.8326 45.7101 8.08974 42.7295 4.83284C41.3199 3.29035 40.5608 2.64416 40.7592 0.333056C40.8567 -0.795902 41.2366 -1.6104 41.5398 -2.65869C42.1488 -4.77345 42.7977 -7.3748 43.1216 -9.59267C43.2829 -10.7003 42.7782 -12.2477 42.9478 -12.9614C43.1174 -13.675 43.6489 -14.3706 43.9175 -15.0426C44.3877 -15.2008 45.407 -15.4015 45.6954 -15.8092C45.9417 -16.1568 45.9822 -16.8236 46.2271 -17.3008C46.3882 -17.6124 47.2983 -19.12 47.4537 -19.2475C48.0266 -19.7232 49.1037 -19.393 49.6937 -19.2673C55.1216 -18.1147 60.58 -16.4477 65.9581 -14.9937C74.9552 -12.5573 84.1149 -8.67861 92.8649 -5.26331C97.4235 -3.48253 102.007 -1.58664 106.574 0.169415C112.028 2.26946 116.349 5.73952 121.24 8.7002C121.953 9.13041 123.946 10.3993 124.511 10.6575C124.819 10.7979 125.131 10.6466 125.497 10.7631C127.325 11.3519 128.491 12.586 129.99 13.4819C137.212 17.7855 144.698 22.8263 150.859 28.5056C153.096 30.5665 155.1 32.9618 157.243 35.051C158.319 36.0994 159.59 37.0523 160.33 38.2406C160.911 39.1739 160.653 39.5061 160.64 40.5278C160.821 40.7643 161.154 40.8747 161.342 41.0852C164.415 44.5225 166.533 48.8392 169.178 52.6326C169.949 53.7389 170.765 55.0119 171.525 56.1326C172.593 57.7087 173.867 59.1049 174.312 60.994C174.163 61.5596 173.63 61.668 173.495 61.9664C173.189 62.6491 174.08 64.117 174.319 64.8131C175.703 68.8411 176.483 72.1239 177.501 76.1962C177.703 77.0003 178.497 78.4239 178.392 79.1951C178.167 80.8518 178.497 81.0413 178.693 82.5805C179.164 86.2933 179.162 89.4993 178.065 93.1493C177.11 96.3271 175.102 100.637 173.459 103.612C172.246 105.81 170.449 107.802 169.147 109.957C165.804 115.49 162.774 121.63 157.243 125.31L157.241 125.309ZM139.534 105.908C141.191 104.886 141.934 104.603 143.35 103.09C147.365 98.8017 150.546 92.7612 152.909 87.2963C153.191 86.6437 153.353 85.6462 153.652 85.018C154.913 82.3722 156.781 80.6764 155.955 77.3098C152.237 70.0942 148.382 62.403 143.182 56.3526C143.089 56.246 143.085 56.0412 142.997 55.9437C142.75 55.669 142.368 55.5476 142.217 55.1487C141.454 55.1066 138.82 54.7835 138.341 55.4306C137.796 56.1679 137.299 57.6669 136.819 58.5616C134.379 63.1379 132.091 67.7982 129.183 72.057C126.548 75.9134 125.402 79.3721 123.31 83.4636C122.682 84.6892 121.977 86.0065 121.298 87.2236C120.772 88.1668 119.528 89.586 119.199 90.435C118.889 91.2383 119.174 93.1655 118.827 94.1248C118.681 94.5309 118.097 94.6048 118.044 95.0851C118.552 98.9323 119.066 104.996 122.037 107.79C122.323 108.062 123.327 109.027 123.553 109.159C124.101 109.484 126.319 110.617 126.817 110.701C127.411 110.803 129.064 110.301 129.675 110.25C131.141 110.125 131.585 110.591 133.106 109.736C135.255 108.524 137.435 107.202 139.534 105.908Z" fill="url(#paint0_linear_230_1323)"/>
<path d="M80.0687 211.381L78.4541 211.328L76.7418 212.271C74.8552 211.544 73.0335 210.942 71.2229 209.946C67.1283 207.688 63.7264 205.59 59.2882 203.8C55.8841 202.429 52.6816 200.888 49.3294 199.291C47.9687 198.643 46.5257 198.289 45.2543 197.278C43.0124 195.499 41.2921 195.152 39.0181 193.757C36.7442 192.361 34.5507 190.628 32.4394 189.17C27.02 185.42 22.6174 180.673 17.5816 176.446C14.0704 173.499 10.5204 170.1 6.81093 167.395C-0.422384 162.119 -7.41101 156.466 -15.8236 152.854C-23.59 149.517 -31.3005 146.787 -39.248 144.3C-51.4744 140.471 -63.7206 136.491 -75.878 132.109C-81.2499 130.172 -86.6912 128.291 -92.1302 126.504C-97.033 124.894 -101.578 121.918 -106.606 120.905C-106.835 120.858 -107.123 121.027 -107.414 120.963C-108.787 120.657 -109.492 119.044 -108.587 117.918C-108.29 117.547 -107.407 117.267 -107.185 116.804C-107.089 116.184 -107.035 115.395 -106.89 114.798C-105.733 110.065 -104.228 106.107 -102.426 101.543C-102.05 100.591 -101.491 98.1685 -100.985 97.499C-100.857 97.3291 -99.4795 96.3841 -99.2286 96.3256C-99.1342 96.3038 -98.4165 96.2659 -98.3281 96.2831C-95.4781 96.7918 -93.3497 98.2744 -90.7443 99.4055C-86.1496 101.397 -81.4926 102.697 -76.7802 104.208C-72.9707 105.428 -68.1423 107.907 -64.7995 110.061C-62.4777 111.557 -59.6439 112.941 -57.1941 114.292C-52.0768 117.112 -45.9403 119.95 -40.4272 121.756C-31.1083 124.81 -22.5492 130.044 -13.2835 133.2C-7.23738 135.263 -1.1916 137.06 5.1806 137.676C9.77091 138.119 13.9115 138.339 18.5448 139.032C24.5299 139.927 30.7755 140.352 36.8434 139.611C45.0514 138.612 51.3998 132.122 55.6769 125.657C59.0896 120.5 62.1371 115.145 65.8324 110.215C68.6093 106.511 71.7928 102.76 75.123 99.7282C75.5619 99.3292 75.9766 98.7347 76.4909 98.3595L77.2367 98.6221L76.8508 99.8204C77.4838 100.076 78.0421 99.5776 78.6855 100.19C79.049 100.463 79.1887 101.601 79.3407 102.091C80.0618 104.433 80.4684 106.826 80.9181 109.242C81.9707 114.908 83.014 120.91 83.917 126.763C83.9673 127.091 84.2969 127.58 84.3155 127.847C84.3699 128.656 83.8114 129.606 84.4981 130.382C84.0135 131.213 83.6932 132.25 83.1979 133.056C81.6164 135.614 78.9415 137.543 77.1271 139.79C75.5122 141.793 74.368 144.041 72.941 146.161C72.3328 147.068 70.9752 148.084 70.0845 148.775C69.2517 149.421 68.0736 150.148 67.1381 150.766C65.6826 151.731 64.1192 152.083 62.4616 152.821C60.8788 153.525 59.2289 154.492 57.719 155.338C57.0465 155.713 56.0128 155.672 55.6211 156.816L55.2293 156.667C54.9974 157.383 54.215 157.315 53.817 157.55C52.5292 158.316 51.1444 158.871 49.943 159.718C49.1738 160.26 48.5312 161.217 47.8172 161.598C47.6819 161.671 46.9842 161.767 46.947 161.804C45.5649 163.063 43.9437 164.044 42.1986 165.188C41.3325 165.756 41.2188 165.791 40.5033 166.613C40.3062 166.84 39.9972 166.912 39.8616 167.191C39.7197 167.483 39.8766 167.723 39.8296 167.926C39.5885 168.966 39.3393 169.061 39.9425 170.134C40.174 170.546 40.9422 171.194 41.1149 171.448C41.1623 171.516 41.0741 171.744 41.1452 171.843C42.4796 173.614 44.1027 174.074 45.9402 175.16C46.6592 175.584 48.0008 176.729 48.5844 176.981C49.0795 177.196 49.3743 176.781 49.8488 177.595C55.1679 180.026 60.1639 183.122 65.6283 185.214C69.2673 186.606 73.3647 189.223 76.7384 190.311C77.1418 190.443 77.469 190.261 77.8734 190.483C78.3547 190.746 78.415 191.384 78.7559 191.73C79.6974 192.684 80.4453 193.718 81.5295 194.558C81.8852 194.834 82.3583 194.942 82.7992 195.301C83.2401 195.66 83.896 196.698 83.9969 197.253C84.1143 197.9 83.9641 198.726 83.9379 199.396C84.7061 200.276 83.9436 201.301 83.7319 202.194C83.3596 203.789 83.0208 205.951 82.9286 207.559C82.8592 208.77 82.0689 208.698 81.7163 209.165C81.1593 209.9 81.1555 210.949 80.0611 211.39L80.0687 211.381Z" fill="url(#paint1_linear_230_1323)"/>
<path d="M-77.9507 44.0048C-77.8784 43.982 -76.7579 43.2085 -76.7079 43.1522C-76.4518 42.8706 -76.4218 42.4243 -76.1523 42.1814C-76.0881 42.1224 -74.7218 41.5328 -74.5549 41.5076C-74.1964 41.453 -73.5566 41.5094 -73.2117 41.6287C-69.9439 42.7563 -65.3805 45.4224 -62.1112 47.0245C-52.4638 51.743 -41.2989 56.6351 -32.2481 62.2496C-28.803 64.3851 -25.4077 66.7091 -21.8513 68.7085C-18.8116 70.4182 -15.6452 71.9799 -12.4326 73.3803C-12.2343 73.3768 -11.4245 72.6392 -11.2193 72.4424C-9.06191 70.3713 -8.2181 68.158 -6.50237 65.8947C-6.23154 65.5364 -5.21492 64.8639 -4.85738 64.493C-4.72153 64.3528 -4.00822 63.5683 -4.01162 63.4957C-4.0483 63.3457 -4.09414 63.1881 -4.21331 63.0818C-4.74365 62.6081 -5.66044 62.0077 -6.26327 61.5439C-9.12973 59.3319 -11.2035 57.1733 -13.6161 54.5051C-14.8369 53.1575 -17.5021 50.7437 -16.9418 48.6761C-16.826 48.2522 -15.8959 46.3387 -15.6341 45.9857C-15.1487 45.3321 -13.8969 44.2485 -13.4084 43.5288C-11.7937 41.1616 -10.9241 40.4402 -8.98394 38.5374C-8.1158 37.6863 -7.22338 36.5731 -6.23014 35.8956C-3.84869 34.2718 -3.07514 34.1192 -0.85547 31.9398C0.180629 30.9222 1.17429 30.0515 2.60223 31.0325C2.88444 31.2277 3.62178 31.7795 3.86912 31.9867C3.99343 32.089 3.86656 32.3368 3.94952 32.4512C4.64233 33.4261 5.64045 34.3432 6.41828 35.2692C9.62813 39.0887 12.9828 42.9948 15.7779 47.0511C19.7708 52.8402 24.2546 58.4747 28.3391 63.8829C33.254 70.3877 38.2737 76.8822 42.7788 83.4939C44.4962 86.0144 48.387 91.8344 49.1215 94.6731C49.2163 95.035 49.3232 95.4383 49.26 95.8137C49.0462 96.4059 48.557 96.2455 48.4828 96.3383C47.8398 97.1506 47.5804 99.6867 47.1817 100.785C46.4649 102.764 45.0095 104.425 44.0072 106.262C41.9824 109.977 40.0158 113.691 38.0535 117.436C37.226 119.019 36.7605 119.937 36.0435 121.551C35.5845 122.588 34.9822 123.562 34.5622 124.605L32.3915 123.283L31.4384 123.612C30.8174 123.378 30.2226 122.937 29.5981 122.737C29.0998 122.575 28.6034 122.701 28.1075 122.528C27.1392 122.193 26.12 121.478 25.1265 121.089C24.5419 120.859 23.6081 120.944 23.0031 120.405L22.9602 119.691C22.6874 119.41 21.0338 118.774 21.4568 119.382C21.69 119.718 22.3769 119.697 22.3513 120.075C21.7771 119.744 21.14 119.57 20.5116 119.377C18.9181 118.889 16.9097 118.287 15.3231 117.719C14.5239 117.434 13.6791 116.784 12.8997 116.531C7.08373 114.645 1.44583 112.108 -4.34555 110.105C-7.88285 108.882 -11.4471 108.032 -14.995 106.672C-22.4749 103.806 -29.7262 100.623 -37.2197 97.8187C-45.0022 94.906 -52.8191 92.0377 -60.5905 89.0756C-67.0859 86.5982 -73.5102 83.9944 -79.9777 81.5855C-80.6494 81.3363 -81.5732 81.2675 -82.3167 80.9738C-85.4093 79.7574 -88.9035 77.6367 -92.1751 77.1003C-92.4829 77.0506 -92.84 77.3476 -93.1468 77.3886C-95.1269 77.3382 -92.6425 73.1023 -92.2789 72.3476C-90.8802 69.4371 -89.4682 66.446 -88.1235 63.4674C-85.8275 58.3793 -83.4251 53.185 -80.7411 48.2468C-80.4806 47.7707 -79.147 46.1145 -79.3389 45.7602L-77.9546 43.9997L-77.9507 44.0048ZM29.8084 97.5132C30.423 97.2898 29.4031 95.8207 29.1732 95.5446C28.8328 95.1374 28.0366 94.5344 27.6295 94.0658C22.5744 88.2341 17.8594 82.5646 13.2238 76.3342C12.8631 75.8495 11.1987 72.9681 10.7233 73.1173L3.89508 86.7735C4.07797 87.0138 4.35217 87.073 4.62764 87.1296C5.97131 87.4153 7.51488 87.376 8.95592 87.6736C9.13134 87.7105 9.35568 87.6004 9.54444 87.6696C16.0145 90.4246 23.1413 93.0219 28.8906 97.0542C29.165 97.2455 29.511 97.3493 29.8044 97.508L29.8084 97.5132Z" fill="url(#paint2_linear_230_1323)"/>
<path d="M65.0627 84.8726C65.0242 84.9055 64.8733 84.8644 64.7692 84.9394C63.9049 85.5571 63.6009 86.1958 62.3113 85.9911C61.6269 85.8808 61.5972 85.4313 61.2184 85.057C59.8642 83.7187 58.8606 82.3091 57.6437 80.8474C45.0169 65.6822 32.8377 49.7354 18.8624 35.7066C14.0322 30.8577 8.68038 25.8552 4.33463 20.739C3.38745 19.6243 2.66548 18.2452 1.49766 17.3392C1.01298 17.1229 -0.0747366 18.8567 -0.503138 19.2673C-1.96927 20.6656 -4.01998 21.8411 -5.61788 22.9337C-8.19746 24.6932 -11.0734 26.1476 -13.4483 28.0099C-17.3859 31.0979 -21.3288 34.1769 -25.4316 36.8687C-27.5512 38.2589 -29.8603 39.3957 -32.094 40.7884C-33.0364 41.3746 -33.9418 42.6007 -35.2873 42.5043C-35.6947 42.4739 -36.7723 41.8662 -37.1136 41.6004C-37.2091 41.525 -37.0973 41.3215 -37.2328 41.1428C-39.5334 38.1778 -42.4615 34.8658 -44.4064 31.7063C-45.3624 30.1522 -45.9775 28.2482 -46.9399 26.7007C-47.6448 25.5652 -48.5985 24.5698 -49.3008 23.4356C-50.2381 21.9293 -50.7744 20.1216 -51.6247 18.6221C-52.4751 17.1226 -54.3517 15.2081 -54.2638 13.4428C-54.2469 13.1029 -54.2236 12.8693 -54.0481 12.5614C-52.5697 9.94426 -46.6492 6.10548 -43.9853 4.35146C-40.9572 2.35871 -38.0105 0.851718 -34.7671 -0.788228C-25.3412 -5.55298 -15.2548 -9.91936 -5.48349 -14.6322C-5.15023 -14.741 -4.8795 -14.7609 -4.53857 -14.6467C-3.64336 -14.3534 -1.84502 -13.4051 -0.972223 -12.9131C-0.509085 -12.6526 -0.216806 -12.2527 0.185177 -12.0121C4.0354 -9.70227 8.05615 -7.67694 11.818 -5.27145C17.0031 -1.95496 22.3448 1.21847 27.3364 4.74065C32.9619 8.70949 38.6243 12.3966 44.5342 16.0654C51.7599 20.5478 57.8001 26.3684 64.3482 31.6882C70.9838 37.0795 77.4317 42.5987 82.582 49.6466L84.8448 50.508L84.1608 53.334C83.8155 53.8655 83.1365 53.7837 82.7132 54.3031C76.757 61.6633 74.0856 71.2035 69.3871 79.391C69.045 79.9886 68.0114 81.5714 67.5756 82.0171C67.3115 82.2884 66.9952 82.2893 66.81 82.5377C66.0435 83.551 66.3311 83.8745 65.0718 84.8738L65.0627 84.8726Z" fill="url(#paint3_linear_230_1323)"/>
<path d="M139.114 224.441C137.815 225.608 136.578 227.172 135.214 228.373C134.202 229.263 132.905 229.802 131.857 230.637C130.192 231.962 128.605 233.742 127.107 235.032C123.186 238.418 118.391 241.844 113.972 244.942C108.621 248.691 103.018 251.881 97.5267 255.813C90.4944 260.845 82.3706 267.168 72.8186 267.153C72.0615 267.152 70.8591 267.212 70.0085 266.966C68.8302 266.626 66.7507 265.579 66.1193 264.531C65.5751 263.628 65.6875 261.282 65.6326 260.201C65.4076 255.844 65.3688 251.568 65.8589 247.291C66.0445 245.689 66.424 243.569 67.4728 242.187C67.5444 242.093 69.043 240.7 69.1702 240.598C70.4678 239.553 72.4939 238.952 73.3751 237.537L74.6505 237.976C75.6243 237.412 76.5919 236.873 77.5576 236.292C82.1716 233.523 85.8878 231.726 90.7564 229.468C93.6737 228.114 95.2585 227.247 97.8746 225.506C100.9 223.492 105.006 222.291 108.289 220.664C109.835 219.804 108.799 217.347 108.355 216.032C107.01 212.062 103.681 206.811 100.908 203.704C99.7198 202.375 97.738 200.094 96.1941 199.06C95.4665 198.574 94.2145 198.716 93.4909 198.236C93.0299 197.931 92.3667 196.822 91.9664 196.505C87.0874 192.619 84.5013 191.362 81.8866 185.237C79.7672 180.275 78.5017 175.969 79.2455 170.5C80.1787 167.586 81.9742 165.152 83.9817 163.011C88.8844 157.779 94.3285 155.855 101.192 153.841C108.102 151.814 115.316 150.564 122.506 149.895C126.601 149.513 131.719 149.774 135.631 148.839C136.378 148.661 136.573 148.208 137.109 147.994C137.854 147.693 140.876 147.743 141.377 147.349C141.617 147.159 141.639 146.877 141.821 146.733C142.466 146.222 147.787 145.93 149.045 145.736C154.627 144.875 159.802 142.975 164.671 140.124C166.414 139.105 168.007 137.597 170.014 137.097C170.875 136.883 171.876 136.839 172.543 137.588C172.628 137.684 173.023 139.372 173.169 139.675C173.25 139.846 173.56 139.913 173.629 140.05C174.753 142.304 174.022 143.013 173.668 145.299C172.731 151.371 172.876 157.001 169.446 162.479C168.807 163.502 167.99 164.559 167.165 165.46C166.96 165.683 166.912 166.027 166.745 166.239C166.66 166.346 166.452 166.232 166.367 166.3C165.44 167.032 164.447 167.32 163.248 167.478C161.95 167.65 161.142 166.819 160.058 166.463C159.435 166.259 158.245 166.332 157.712 166.183C156.938 165.965 156.097 165.243 155.314 165.062C154.85 164.956 153.674 165.061 153.159 164.988C152.129 164.839 150.859 164.447 149.863 164.349C147.291 164.105 145.048 164.893 142.422 164.043C141.497 163.744 140.358 162.553 139.479 163.134C138.954 162.969 138.331 162.441 137.826 162.331C137.704 162.304 137.616 162.545 137.495 162.515C133.129 161.472 128.427 162.01 123.742 162.205L123.517 162.549C122.845 162.055 122.54 162.516 122.039 162.572C120.288 162.766 118.317 162.723 116.565 163.08C116.344 163.124 115.734 163.462 115.666 163.464C115.238 163.482 115.049 162.855 114.746 163.546C114.054 163.709 112.363 163.867 111.75 164.12C111.475 164.235 111.181 164.588 110.835 164.742C109.323 165.412 107.481 165.742 106.223 167.129C105.417 168.019 105.011 168.914 104.327 169.855C104.116 170.146 103.703 170.271 103.427 170.674C102.535 171.978 102.594 173.283 102.488 174.74L102.844 175.049C102.403 175.711 102.668 176.526 103.446 176.74C102.853 177.331 103.772 178.597 103.785 178.868C103.794 179.062 103.58 179.27 103.552 179.479C103.519 179.734 104.062 180.03 103.522 180.622L103.884 180.846L103.792 181.307L104.41 181.608C104.172 182.243 104.451 182.994 104.624 183.633C105.333 183.945 106.008 184.36 106.723 184.653C108.12 185.219 110.539 185.979 112.016 186.275C113.831 186.639 115.627 186.239 117.401 186.456C121.572 186.972 125.427 188.933 129.417 190.067C132.368 190.905 133.507 191.043 136.172 192.806C138.318 194.226 140.455 195.651 142.498 197.244C143.398 197.945 144.668 198.898 145.302 199.822C145.985 200.818 147.766 206.508 147.782 207.657C147.852 212.783 143.593 219.476 140.163 223.204C139.861 223.534 139.281 224.284 139.106 224.437L139.114 224.441Z" fill="url(#paint4_linear_230_1323)"/>
<path d="M70.3802 231.266C70.2823 231.321 70.0376 231.228 69.8928 231.38C69.5685 231.716 69.2923 233.093 68.6306 232.929C67.6673 232.69 67.8645 232.244 67.7769 232.173C67.6408 232.061 64.8064 231.554 64.3662 231.491C63.8468 231.419 62.677 231.837 62.3353 231.777C61.5339 231.636 60.0736 231.013 59.0367 230.793C57.09 230.381 54.1555 230.312 52.423 229.798C49.7318 229.003 46.5142 226.578 43.751 225.593C43.2342 225.409 42.7165 225.486 42.2483 225.349C40.1946 224.754 38.1827 224.185 36.065 223.887L32.9531 224.879C31.6081 227.142 29.8472 229.074 32.7744 230.809C34.3 231.715 35.629 232.31 37.1881 233.306C40.2487 235.258 43.9121 235.936 47.2085 236.952C48.5432 237.362 49.5354 238.676 49.6426 240.027C49.8347 242.483 49.0959 244.348 48.4234 246.573C48.0509 247.81 48.2464 249.755 48.0395 251.083C47.7019 253.229 46.7517 256.364 45.5758 258.213C44.963 259.175 44.0257 259.87 43.6146 261.134C43.4492 261.64 43.6905 262.695 43.4899 263.426C42.6602 266.439 39.3269 268.728 36.6207 269.946C33.9145 271.164 32.0967 270.56 29.2493 270.868C27.579 271.049 25.9509 271.528 24.297 271.674C23.1444 271.778 17.6412 271.543 17.2138 271.812C17.0657 271.904 17.0014 272.176 16.8442 272.267C16.4114 272.515 15.5335 272.961 15.048 272.899C14.2314 272.796 12.8393 272.238 11.9275 272.085C8.64927 271.536 6.37682 271.894 2.91972 271.004C2.43867 270.879 1.39213 270.964 0.847378 270.825C-2.43407 269.99 -4.87643 268.258 -7.88773 267.12C-12.2517 265.469 -16.7648 264.516 -21.1589 262.609C-24.4262 261.189 -27.4252 259.289 -30.4796 257.544C-37.4066 253.58 -44.5288 250.005 -51.4705 246.112C-54.077 244.652 -56.3956 243.328 -58.5904 241.359C-59.1338 240.872 -59.5541 240.736 -59.9358 239.99C-60.5004 238.884 -59.8999 238.45 -59.6772 237.495C-59.6451 237.356 -59.8679 237.257 -59.8637 237.163C-59.6613 232.781 -57.7901 231.551 -55.2382 228.356C-54.9838 228.038 -54.869 227.524 -54.5946 227.138C-53.4446 225.528 -48.8047 222.401 -46.8564 221.808C-45.6497 221.44 -45.1024 222.151 -45.7099 223.242C-44.9667 223.967 -44.0573 223.329 -43.2991 223.547C-42.2378 223.85 -41.8828 224.412 -41.1563 224.92C-40.2822 225.529 -38.7766 226.383 -38.0123 227.025C-37.6943 227.293 -37.0697 228.428 -36.8122 228.621C-31.1439 232.826 -22.9788 234.6 -16.9079 238.296C-15.01 239.45 -12.9732 241.082 -11.0616 242.188C-9.42272 243.14 -7.41391 243.781 -5.80076 244.746C1.53942 249.145 7.02121 255.339 16.3662 254.46C18.4123 254.269 21.58 253.62 22.4641 251.536C22.6611 251.071 22.5581 250.786 22.6627 250.398C22.954 249.321 23.4495 247.845 23.4342 246.703C23.4119 245.064 22.0572 244.37 21.476 243.179C21.0076 242.213 21.4209 242.304 20.5245 241.324C17.2853 237.783 14.7118 235.446 10.8374 232.603C6.74215 229.597 -1.9098 222.897 -2.05279 217.303C-2.09725 215.531 -1.39982 214.024 -0.909674 212.412C0.264646 208.57 2.38865 202.709 6.46724 201.214C12.1545 199.128 19.0028 198.612 24.817 200.216C31.6038 202.088 38.3636 203.047 44.9605 205.786C49.1036 207.506 53.2943 209.428 57.3897 211.286C59.6634 212.317 61.2276 213.542 63.2915 214.7C67.4074 217.006 70.7061 217.985 74.5368 220.984C75.2182 221.519 75.7334 221.679 75.7836 222.689C75.6619 223.749 74.6527 223.232 74.3578 223.408C74.2947 223.445 73.3205 224.322 73.2745 224.383C72.3458 225.611 72.7393 227.295 72.2617 228.635C71.8884 229.682 71.367 230.708 70.3893 231.267L70.3802 231.266Z" fill="url(#paint5_linear_230_1323)"/>
<path d="M6.77875 189.998C6.7441 190.029 6.56182 189.96 6.47047 190.022C4.96048 191.093 3.17542 192.027 1.69512 192.97C0.0655086 194.009 -2.35628 196.2 -4.26742 196.524C-5.11754 196.669 -5.9384 196.415 -6.75789 196.516C-7.96321 196.662 -7.75877 197.322 -9.22672 196.125C-11.2572 194.474 -13.1128 190.607 -14.5547 188.381C-15.5006 186.919 -17.5389 184.92 -17.8847 183.092C-17.9536 182.73 -17.6483 182.095 -18.073 181.676C-18.6104 181.727 -19.1113 181.571 -19.6305 181.518C-22.5169 181.224 -25.4608 181.823 -28.2587 182.149C-29.1197 182.249 -29.9935 182.243 -30.795 182.334C-32.4044 182.515 -33.8501 183.414 -35.3289 184.036L-35.6031 184.899C-34.3609 186.779 -33.7018 189.024 -32.4388 190.901C-31.5054 192.289 -30.1504 193.473 -29.421 194.943C-29.4338 195.42 -29.7523 195.804 -30.0714 196.129C-31.7622 197.843 -35.788 199.535 -38.0466 200.786C-38.6071 201.097 -39.6706 201.979 -40.3146 202.237C-40.8631 202.457 -41.6999 202.401 -42.2102 202.795L-42.4813 202.663C-42.3865 202.096 -42.8988 202.076 -43.1319 201.753C-43.1701 201.699 -43.1162 201.535 -43.1742 201.449C-47.2044 195.571 -51.0057 188.824 -53.6962 182.073C-54.0389 181.214 -54.6432 178.657 -55.2589 178.2C-55.6654 177.903 -56.1501 178.031 -56.6175 177.852C-60.2174 176.48 -63.162 175.516 -67.0674 175.686C-68.5394 175.751 -69.3927 176.532 -70.4436 176.691C-71.9281 176.914 -73.1417 175.744 -72.0519 178.249C-69.6141 183.856 -66.8995 189.988 -63.8369 195.25C-61.7999 198.751 -59.0825 201.668 -57.5196 205.434C-57.1598 206.305 -56.6787 207.596 -56.7879 208.491L-56.2002 208.999L-57.9769 210.446C-61.9458 212.942 -64.7054 220.734 -69.3675 221.872C-69.5149 221.91 -69.7531 221.703 -70.0518 221.774C-71.1767 222.04 -72.0266 223.364 -73.2583 221.959C-73.4119 221.785 -73.7974 220.821 -73.9304 220.637C-77.1859 216.215 -79.7756 212.552 -81.9941 207.535C-83.533 204.057 -85.096 200.735 -86.7537 197.296C-88.3039 194.08 -89.0942 188.797 -90.161 185.223C-91.7934 179.756 -94.192 174.288 -95.8329 168.878C-96.6243 166.27 -97.3205 163.723 -98.2988 161.221C-100.502 155.576 -102.679 149.983 -103.934 144.091C-103.986 143.846 -104.286 143.362 -104.303 143.18C-104.317 143.041 -104.199 141.712 -104.16 141.645L-103.871 141.421C-103.233 141.721 -102.699 141.642 -102.025 141.696C-99.7624 141.874 -98.173 142.576 -95.9099 143.231C-89.0817 145.209 -82.1484 146.846 -75.32 148.724C-70.2822 150.109 -65.1122 150.918 -60.0259 152.243C-55.5974 153.396 -51.0227 154.302 -46.6151 155.445C-44.947 155.879 -43.5872 156.443 -41.9934 156.837C-36.7831 158.12 -31.2347 159.144 -25.9111 160.239C-23.2981 160.778 -20.7903 161.407 -18.1608 161.786C-17.3934 161.898 -16.8432 162.291 -16.0278 161.708L-15.2058 162.291L-15.2835 161.728C-14.3167 162.159 -13.1626 162.762 -12.1598 163.059C-11.0048 163.402 -9.47516 163.272 -8.31676 163.567C-7.62639 163.745 -5.81893 164.582 -5.3207 165.082C-4.71628 165.688 -5.36814 166.287 -4.92991 167.102C-4.76573 167.408 -4.31687 167.784 -4.21219 167.986C-3.92197 168.549 -3.58025 169.544 -3.16142 170.247C-1.22341 173.481 1.86402 175.861 3.42022 179.151C4.05356 180.487 4.2994 182.414 4.93292 183.651C5.47634 184.714 7.47242 187.112 7.54286 188.194C7.568 188.586 7.06763 189.748 6.78641 189.989L6.77875 189.998Z" fill="url(#paint6_linear_230_1323)"/>
<path d="M22.1046 120.052C21.6643 119.751 21.2253 119.447 20.7877 119.147" stroke="url(#paint7_linear_230_1323)" stroke-width="2" stroke-linecap="round" stroke-linejoin="round"/>
</g>
</g>
<g opacity="0.1" clip-path="url(#clip2_230_1323)">
<mask id="mask1_230_1323" style="mask-type:luminance" maskUnits="userSpaceOnUse" x="141" y="179" width="453" height="453">
<path d="M331.641 179.593L141.593 441.76L403.76 631.808L593.808 369.641L331.641 179.593Z" fill="white"/>
</mask>
<g mask="url(#mask1_230_1323)">
<path d="M249.027 382.796C255.441 379.992 258.943 377.507 266.491 377.318C268.273 377.275 271.951 377.836 273.432 377.181C274.301 376.797 275.249 376.052 276.204 375.778C278.373 375.156 280.308 375.681 282.492 375.75C284.676 375.819 287.342 375.51 289.343 376.134C292.732 377.187 294.968 379.367 297.855 381.241C299.774 382.486 300.514 382.804 302.273 384.491C306.095 388.153 307.499 390.602 309.17 395.562C310.116 398.371 310.779 400.864 310.815 403.847C310.843 406.237 310.878 408.407 310.93 410.736C311.156 420.756 310.38 431.367 306.607 440.632C303.103 449.244 296.32 455.959 290.28 462.952C287.912 465.696 287.202 467.737 286.028 470.971C285.669 471.961 285.406 472.995 284.992 473.965C284.996 474.054 285.736 475.138 285.871 475.297C288.608 478.505 291.978 481.249 295.322 483.867C301.38 488.602 307.651 493.627 313.982 497.995C318.118 500.85 323.114 503.494 326.848 506.917C327.302 507.332 327.677 508.03 328.229 508.509C329.254 509.395 330.265 510.189 331.261 511.082C334.705 514.174 338.472 517.624 340.841 521.35C341.961 523.114 342.596 523.882 341.999 526.124C341.707 527.219 341.191 527.955 340.71 528.934C339.742 530.911 338.651 533.36 337.946 535.487C337.595 536.55 337.823 538.162 337.532 538.835C337.241 539.508 336.596 540.101 336.215 540.716C335.724 540.79 334.686 540.81 334.331 541.162C334.028 541.461 333.872 542.111 333.548 542.538C333.335 542.817 332.177 544.143 332.001 544.242C331.354 544.611 330.351 544.098 329.792 543.872C324.647 541.793 319.562 539.202 314.519 536.835C306.082 532.871 297.737 527.458 289.714 522.573C285.535 520.027 281.351 517.363 277.158 514.839C272.153 511.823 268.501 507.654 264.2 503.888C263.573 503.34 261.83 501.744 261.319 501.392C261.04 501.2 260.706 501.295 260.366 501.116C258.668 500.218 257.735 498.8 256.415 497.658C250.051 492.164 243.556 485.898 238.477 479.234C236.632 476.815 235.075 474.108 233.328 471.678C232.451 470.458 231.365 469.299 230.842 468C230.433 466.98 230.745 466.697 230.935 465.694C230.798 465.429 230.489 465.262 230.341 465.022C227.912 461.103 226.577 456.484 224.632 452.288C224.065 451.065 223.484 449.669 222.929 448.433C222.152 446.696 221.14 445.099 221.03 443.161C221.275 442.63 221.819 442.616 222.004 442.346C222.424 441.727 221.802 440.126 221.688 439.399C221.025 435.192 220.828 431.824 220.534 427.636C220.475 426.809 219.941 425.27 220.178 424.528C220.688 422.936 220.395 422.692 220.47 421.142C220.652 417.404 221.211 414.247 222.927 410.844C224.42 407.88 227.146 403.985 229.282 401.341C230.859 399.387 232.975 397.738 234.632 395.843C238.887 390.976 242.938 385.456 249.024 382.794L249.027 382.796ZM263.09 404.98C261.28 405.698 260.499 405.848 258.842 407.092C254.142 410.616 249.959 416.011 246.682 420.982C246.291 421.576 245.957 422.53 245.553 423.096C243.852 425.483 241.717 426.828 241.945 430.287C244.352 438.039 246.81 446.283 250.879 453.146C250.952 453.267 250.92 453.469 250.99 453.581C251.185 453.894 251.541 454.08 251.62 454.499C252.364 454.673 254.902 455.45 255.486 454.896C256.151 454.264 256.901 452.875 257.529 452.077C260.728 447.995 263.791 443.804 267.396 440.115C270.662 436.776 272.392 433.569 275.163 429.904C275.995 428.806 276.918 427.632 277.798 426.551C278.48 425.714 279.952 424.532 280.424 423.754C280.869 423.016 280.923 421.069 281.432 420.185C281.646 419.81 282.234 419.839 282.37 419.375C282.538 415.498 283.087 409.437 280.648 406.169C280.412 405.852 279.592 404.727 279.392 404.557C278.909 404.143 276.922 402.641 276.447 402.472C275.879 402.268 274.164 402.475 273.553 402.419C272.088 402.287 271.732 401.75 270.085 402.329C267.758 403.148 265.381 404.071 263.09 404.98Z" fill="url(#paint8_linear_230_1323)"/>
<path d="M339.991 311.456L341.571 311.789L343.422 311.158C345.153 312.202 346.842 313.111 348.452 314.407C352.092 317.342 355.077 320.001 359.136 322.535C362.25 324.477 365.136 326.551 368.159 328.707C369.386 329.582 370.746 330.181 371.822 331.398C373.72 333.54 375.354 334.181 377.351 335.95C379.347 337.72 381.206 339.808 383.032 341.611C387.716 346.246 391.226 351.687 395.45 356.725C398.395 360.238 401.3 364.202 404.483 367.512C410.688 373.965 416.587 380.747 424.244 385.768C431.311 390.404 438.43 394.433 445.824 398.264C457.198 404.161 468.565 410.21 479.775 416.64C484.728 419.482 489.76 422.281 494.805 424.986C499.353 427.424 503.311 431.145 508.087 433.017C508.304 433.103 508.617 432.986 508.893 433.1C510.191 433.64 510.605 435.351 509.518 436.303C509.161 436.617 508.242 436.739 507.944 437.156C507.742 437.75 507.551 438.518 507.304 439.08C505.342 443.54 503.172 447.176 500.603 451.357C500.067 452.229 499.095 454.517 498.481 455.089C498.326 455.234 496.804 455.925 496.547 455.939C496.45 455.944 495.737 455.856 495.653 455.824C492.935 454.827 491.097 452.997 488.728 451.43C484.549 448.67 480.189 446.58 475.812 444.273C472.272 442.409 467.949 439.128 465.031 436.426C463.005 434.549 460.455 432.693 458.278 430.936C453.729 427.269 448.179 423.407 443.064 420.67C434.418 416.042 426.9 409.4 418.324 404.68C412.729 401.597 407.088 398.775 400.92 397.061C396.477 395.827 392.437 394.889 387.995 393.402C382.257 391.48 376.18 389.975 370.076 389.649C361.819 389.206 354.439 394.492 349.103 400.115C344.845 404.601 340.913 409.344 336.417 413.556C333.038 416.72 329.251 419.861 325.444 422.267C324.942 422.584 324.431 423.097 323.859 423.377L323.17 422.989L323.758 421.876C323.18 421.514 322.543 421.908 322.016 421.193C321.706 420.86 321.766 419.716 321.701 419.207C321.399 416.775 321.414 414.348 321.392 411.89C321.34 406.128 321.357 400.036 321.486 394.115C321.493 393.783 321.253 393.245 321.282 392.979C321.369 392.172 322.084 391.333 321.543 390.451C322.164 389.716 322.66 388.751 323.288 388.043C325.29 385.799 328.26 384.365 330.437 382.467C332.376 380.775 333.894 378.761 335.668 376.921C336.424 376.134 337.938 375.37 338.935 374.844C339.868 374.352 341.154 373.842 342.183 373.396C343.784 372.698 345.385 372.624 347.146 372.185C348.827 371.768 350.62 371.102 352.254 370.532C352.981 370.279 353.992 370.5 354.577 369.441L354.937 369.656C355.289 368.991 356.048 369.194 356.481 369.032C357.882 368.501 359.343 368.195 360.673 367.57C361.525 367.171 362.324 366.34 363.093 366.088C363.239 366.04 363.943 366.067 363.986 366.037C365.566 365.038 367.333 364.354 369.25 363.531C370.202 363.122 370.32 363.107 371.168 362.422C371.401 362.233 371.718 362.216 371.9 361.965C372.091 361.702 371.978 361.438 372.06 361.246C372.478 360.264 372.74 360.214 372.332 359.052C372.176 358.606 371.532 357.835 371.406 357.554C371.372 357.479 371.498 357.27 371.445 357.16C370.439 355.185 368.921 354.449 367.3 353.06C366.666 352.517 365.544 351.156 365.013 350.807C364.563 350.509 364.2 350.866 363.875 349.982C359.059 346.663 354.678 342.746 349.661 339.735C346.319 337.732 342.739 334.442 339.606 332.783C339.232 332.584 338.878 332.706 338.518 332.417C338.09 332.074 338.142 331.435 337.866 331.035C337.105 329.932 336.548 328.784 335.627 327.768C335.324 327.435 334.877 327.246 334.505 326.816C334.134 326.385 333.668 325.25 333.665 324.685C333.662 324.028 333.954 323.241 334.096 322.585C333.493 321.585 334.422 320.708 334.786 319.866C335.43 318.36 336.139 316.29 336.51 314.722C336.789 313.542 337.555 313.75 337.983 313.351C338.659 312.725 338.845 311.692 340 311.448L339.991 311.456Z" fill="url(#paint9_linear_230_1323)"/>
<path d="M466.494 503.762C466.419 503.772 465.181 504.339 465.122 504.386C464.821 504.619 464.714 505.053 464.406 505.245C464.333 505.292 462.885 505.635 462.716 505.631C462.353 505.622 461.733 505.456 461.414 505.278C458.392 503.599 454.362 500.18 451.421 498.034C442.741 491.71 432.597 484.95 424.661 477.848C421.64 475.145 418.7 472.266 415.546 469.679C412.85 467.467 410.003 465.378 407.083 463.44C406.887 463.409 405.961 463.995 405.725 464.153C403.24 465.817 402.024 467.85 399.941 469.781C399.612 470.086 398.494 470.572 398.078 470.875C397.919 470.989 397.081 471.638 397.071 471.71C397.081 471.864 397.099 472.027 397.198 472.153C397.638 472.711 398.436 473.462 398.949 474.024C401.387 476.7 403.054 479.187 404.966 482.234C405.934 483.773 408.139 486.614 407.227 488.552C407.04 488.95 405.791 490.672 405.472 490.974C404.88 491.534 403.459 492.383 402.853 493.007C400.851 495.057 399.869 495.616 397.627 497.153C396.625 497.84 395.552 498.781 394.456 499.275C391.829 500.46 391.04 500.476 388.475 502.236C387.278 503.058 386.148 503.743 384.913 502.528C384.669 502.287 384.039 501.615 383.831 501.368C383.726 501.246 383.894 501.024 383.833 500.897C383.32 499.816 382.497 498.74 381.892 497.692C379.395 493.373 376.771 488.943 374.724 484.462C371.798 478.067 368.363 471.739 365.281 465.703C361.572 458.442 357.758 451.174 354.472 443.879C353.219 441.099 350.399 434.691 350.17 431.767C350.139 431.394 350.104 430.979 350.232 430.62C350.545 430.074 350.999 430.317 351.088 430.239C351.863 429.551 352.559 427.098 353.143 426.086C354.193 424.262 355.915 422.879 357.221 421.245C359.862 417.939 362.444 414.623 365.028 411.276C366.118 409.861 366.736 409.038 367.723 407.573C368.355 406.632 369.118 405.778 369.713 404.823L371.62 406.503L372.616 406.345C373.187 406.683 373.696 407.22 374.276 407.526C374.739 407.772 375.25 407.734 375.708 407.991C376.603 408.49 377.482 409.371 378.393 409.927C378.929 410.255 379.863 410.334 380.365 410.97L380.283 411.681C380.503 412.005 382.021 412.919 381.71 412.246C381.539 411.875 380.859 411.776 380.95 411.408C381.457 411.834 382.055 412.116 382.64 412.415C384.124 413.173 385.997 414.115 387.461 414.951C388.198 415.37 388.917 416.157 389.641 416.541C395.04 419.41 400.151 422.889 405.506 425.869C408.776 427.689 412.139 429.145 415.396 431.102C422.264 435.224 428.851 439.62 435.742 443.685C442.9 447.907 450.099 452.091 457.237 456.359C463.202 459.928 469.076 463.61 475.026 467.107C475.644 467.469 476.542 467.697 477.223 468.116C480.057 469.852 483.129 472.548 486.257 473.645C486.552 473.747 486.955 473.517 487.264 473.53C489.206 473.924 486.022 477.663 485.533 478.343C483.649 480.966 481.739 483.666 479.897 486.365C476.751 490.977 473.482 495.674 469.98 500.07C469.64 500.494 468.039 501.893 468.166 502.275L466.497 503.768L466.494 503.762ZM369.682 432.329C369.038 432.442 369.787 434.066 369.966 434.378C370.23 434.838 370.909 435.571 371.229 436.103C375.193 442.725 378.85 449.128 382.331 456.07C382.602 456.61 383.74 459.737 384.234 459.672L393.333 447.412C393.195 447.143 392.935 447.037 392.674 446.934C391.4 446.419 389.873 446.189 388.506 445.645C388.34 445.578 388.1 445.648 387.926 445.547C382.033 441.709 375.467 437.912 370.506 432.941C370.27 432.705 369.947 432.542 369.685 432.335L369.682 432.329Z" fill="url(#paint10_linear_230_1323)"/>
<path d="M332.768 438.646C332.811 438.62 332.953 438.687 333.068 438.631C334.027 438.173 334.437 437.597 335.672 438.023C336.326 438.251 336.277 438.699 336.585 439.133C337.686 440.686 338.429 442.249 339.373 443.9C349.171 461.03 358.391 478.852 369.714 495.097C373.627 500.712 378.027 506.569 381.417 512.363C382.156 513.626 382.627 515.109 383.62 516.205C384.059 516.502 385.432 514.984 385.925 514.654C387.612 513.532 389.836 512.731 391.6 511.933C394.446 510.649 397.531 509.717 400.193 508.296C404.608 505.94 409.026 503.593 413.535 501.656C415.864 500.656 418.335 499.938 420.777 498.955C421.807 498.541 422.912 497.491 424.22 497.82C424.616 497.921 425.572 498.707 425.862 499.028C425.943 499.119 425.797 499.3 425.899 499.499C427.649 502.819 429.957 506.59 431.323 510.04C431.994 511.736 432.268 513.718 432.947 515.41C433.444 516.65 434.21 517.796 434.704 519.036C435.365 520.682 435.579 522.555 436.156 524.18C436.732 525.804 438.247 528.016 437.854 529.739C437.778 530.071 437.714 530.297 437.488 530.57C435.577 532.89 429.079 535.64 426.151 536.904C422.822 538.34 419.658 539.312 416.179 540.363C406.068 543.416 395.376 545.961 384.934 548.903C384.587 548.952 384.317 548.925 384.001 548.753C383.171 548.308 381.565 547.062 380.791 546.426C380.38 546.089 380.162 545.644 379.808 545.337C376.418 542.393 372.811 539.699 369.524 536.676C364.995 532.508 360.287 528.454 355.984 524.118C351.134 519.231 346.199 514.616 341.017 509.975C334.681 504.304 329.745 497.522 324.222 491.144C318.625 484.681 313.235 478.125 309.389 470.289L307.311 469.047L308.476 466.383C308.908 465.919 309.563 466.118 310.07 465.68C317.215 459.468 321.505 450.538 327.556 443.292C327.997 442.763 329.29 441.384 329.796 441.021C330.104 440.8 330.415 440.854 330.641 440.642C331.572 439.777 331.345 439.408 332.759 438.643L332.768 438.646Z" fill="url(#paint11_linear_230_1323)"/>
<path d="M284.116 288.326C285.598 287.403 287.089 286.078 288.64 285.133C289.792 284.432 291.163 284.126 292.34 283.486C294.21 282.472 296.083 280.994 297.782 279.985C302.232 277.332 307.549 274.793 312.441 272.51C318.362 269.749 324.434 267.581 330.526 264.665C338.326 260.932 347.425 256.119 356.829 257.795C357.575 257.927 358.769 258.077 359.564 258.467C360.665 259.007 362.531 260.399 362.971 261.541C363.35 262.525 362.831 264.816 362.697 265.89C362.161 270.22 361.455 274.438 360.229 278.564C359.767 280.11 359.025 282.131 357.752 283.31C357.665 283.39 355.947 284.501 355.804 284.579C354.344 285.383 352.245 285.622 351.131 286.863L349.951 286.208C348.894 286.595 347.848 286.957 346.796 287.361C341.77 289.285 337.798 290.409 332.611 291.786C329.503 292.612 327.791 293.19 324.912 294.45C321.583 295.907 317.33 296.375 313.815 297.407C312.143 297.985 312.736 300.584 312.944 301.956C313.578 306.1 315.944 311.85 318.134 315.392C319.073 316.907 320.628 319.498 321.968 320.785C322.6 321.39 323.858 321.468 324.487 322.067C324.888 322.447 325.348 323.654 325.687 324.036C329.816 328.712 332.144 330.399 333.654 336.885C334.878 342.141 335.375 346.601 333.692 351.857C332.266 354.564 330.075 356.649 327.725 358.408C321.987 362.708 316.292 363.656 309.182 364.445C302.026 365.24 294.704 365.216 287.507 364.625C283.408 364.288 278.414 363.142 274.399 363.382C273.632 363.427 273.361 363.84 272.797 363.957C272.01 364.124 269.043 363.549 268.481 363.85C268.212 363.995 268.141 364.27 267.937 364.379C267.212 364.771 261.922 364.133 260.649 364.105C255.003 363.982 249.576 364.954 244.285 366.914C242.392 367.615 240.561 368.822 238.498 368.966C237.613 369.026 236.619 368.897 236.092 368.042C236.025 367.933 235.93 366.202 235.838 365.879C235.789 365.696 235.496 365.576 235.451 365.43C234.736 363.014 235.579 362.443 236.326 360.253C238.304 354.437 239.141 348.868 243.471 344.07C244.278 343.173 245.266 342.274 246.235 341.53C246.476 341.347 246.583 341.016 246.785 340.837C246.886 340.746 247.072 340.895 247.167 340.842C248.207 340.282 249.236 340.172 250.444 340.224C251.752 340.281 252.403 341.24 253.409 341.779C253.987 342.087 255.171 342.222 255.67 342.463C256.394 342.812 257.097 343.669 257.837 343.983C258.275 344.168 259.451 344.269 259.946 344.431C260.934 344.757 262.116 345.363 263.081 345.633C265.571 346.321 267.917 345.935 270.355 347.229C271.214 347.684 272.128 349.055 273.095 348.635C273.584 348.89 274.105 349.518 274.583 349.714C274.698 349.762 274.827 349.54 274.941 349.591C279.059 351.377 283.784 351.665 288.43 352.288L288.713 351.987C289.288 352.591 289.669 352.19 290.172 352.222C291.929 352.336 293.863 352.721 295.651 352.674C295.876 352.669 296.535 352.442 296.603 352.452C297.027 352.509 297.104 353.159 297.523 352.531C298.233 352.491 299.925 352.63 300.573 352.487C300.864 352.422 301.215 352.125 301.582 352.033C303.188 351.636 305.059 351.633 306.539 350.485C307.488 349.749 308.044 348.938 308.88 348.13C309.139 347.881 309.567 347.829 309.91 347.48C311.014 346.351 311.183 345.056 311.541 343.64L311.244 343.274C311.793 342.698 311.675 341.85 310.945 341.503C311.632 341.024 310.947 339.618 310.981 339.349C311.006 339.156 311.254 338.988 311.317 338.787C311.394 338.542 310.911 338.157 311.545 337.667L311.228 337.384L311.399 336.946L310.843 336.542C311.187 335.958 311.043 335.17 310.984 334.511C310.34 334.08 309.748 333.554 309.094 333.141C307.817 332.34 305.567 331.172 304.164 330.623C302.44 329.95 300.601 330.031 298.893 329.509C294.875 328.275 291.419 325.674 287.687 323.863C284.927 322.525 283.83 322.191 281.511 319.991C279.645 318.22 277.789 316.444 276.054 314.521C275.29 313.673 274.204 312.514 273.741 311.494C273.242 310.395 272.477 304.481 272.662 303.347C273.484 298.287 278.842 292.437 282.868 289.362C283.223 289.089 283.925 288.452 284.123 288.331L284.116 288.326Z" fill="url(#paint12_linear_230_1323)"/>
<path d="M352.99 293.559C353.096 293.521 353.321 293.655 353.49 293.531C353.867 293.257 354.379 291.949 355.002 292.225C355.909 292.628 355.637 293.033 355.711 293.118C355.826 293.252 358.529 294.244 358.951 294.382C359.45 294.544 360.675 294.336 361.001 294.454C361.766 294.733 363.095 295.6 364.078 295.997C365.924 296.741 368.801 297.32 370.418 298.127C372.93 299.378 375.677 302.325 378.227 303.776C378.704 304.047 379.227 304.061 379.664 304.278C381.583 305.221 383.465 306.131 385.499 306.793L388.736 306.357C390.454 304.363 392.524 302.766 389.943 300.548C388.598 299.391 387.393 298.574 386.031 297.322C383.356 294.868 379.867 293.562 376.797 291.989C375.554 291.353 374.806 289.886 374.935 288.537C375.173 286.086 376.225 284.378 377.274 282.303C377.856 281.15 378.002 279.2 378.436 277.929C379.142 275.874 380.623 272.952 382.103 271.336C382.873 270.495 383.917 269.973 384.542 268.801C384.793 268.331 384.739 267.25 385.063 266.565C386.404 263.742 390.085 262.068 392.962 261.339C395.838 260.611 397.524 261.521 400.381 261.713C402.057 261.825 403.744 261.637 405.398 261.78C406.551 261.878 411.93 263.067 412.397 262.876C412.559 262.811 412.67 262.555 412.84 262.492C413.31 262.324 414.252 262.037 414.719 262.182C415.505 262.426 416.779 263.217 417.651 263.527C420.783 264.638 423.084 264.68 426.333 266.158C426.785 266.364 427.83 266.463 428.343 266.695C431.429 268.087 433.533 270.218 436.3 271.862C440.311 274.247 444.589 275.97 448.585 278.612C451.555 280.579 454.178 282.971 456.883 285.222C463.015 290.329 469.407 295.088 475.566 300.129C477.879 302.021 479.932 303.727 481.75 306.048C482.201 306.622 482.591 306.829 482.837 307.631C483.201 308.818 482.534 309.14 482.149 310.042C482.093 310.174 482.295 310.31 482.275 310.402C481.313 314.682 479.257 315.568 476.188 318.27C475.882 318.539 475.68 319.025 475.342 319.357C473.93 320.743 468.817 323.015 466.795 323.261C465.543 323.413 465.128 322.618 465.916 321.65C465.31 320.806 464.303 321.276 463.594 320.93C462.602 320.447 462.35 319.831 461.723 319.205C460.968 318.453 459.634 317.35 458.993 316.585C458.727 316.266 458.309 315.04 458.089 314.805C453.238 309.678 445.506 306.511 440.17 301.816C438.502 300.349 436.78 298.388 435.09 296.966C433.642 295.744 431.775 294.763 430.354 293.533C423.891 287.924 419.57 280.871 410.214 280.111C408.166 279.944 404.934 280.032 403.701 281.93C403.426 282.354 403.478 282.653 403.307 283.016C402.833 284.026 402.089 285.394 401.905 286.521C401.642 288.139 402.855 289.058 403.221 290.332C403.514 291.365 403.123 291.203 403.835 292.324C406.409 296.374 408.537 299.123 411.858 302.597C415.368 306.269 422.723 314.372 421.891 319.905C421.627 321.658 420.678 323.021 419.915 324.523C418.09 328.102 414.979 333.505 410.703 334.268C404.739 335.333 397.906 334.65 392.459 332.059C386.101 329.036 379.611 326.916 373.591 323.071C369.81 320.656 366.018 318.036 362.308 315.493C360.248 314.082 358.921 312.605 357.09 311.105C353.437 308.118 350.359 306.581 347.109 302.961C346.53 302.316 346.051 302.069 346.177 301.065C346.481 300.043 347.385 300.727 347.706 300.605C347.775 300.58 348.887 299.885 348.943 299.833C350.071 298.785 349.976 297.059 350.68 295.822C351.229 294.856 351.921 293.937 352.981 293.556L352.99 293.559Z" fill="url(#paint13_linear_230_1323)"/>
<path d="M381.189 411.474C381.57 411.847 381.95 412.222 382.328 412.593" stroke="url(#paint14_linear_230_1323)" stroke-width="2" stroke-linecap="round" stroke-linejoin="round"/>
</g>
</g>
<g opacity="0.1" clip-path="url(#clip3_230_1323)">
<mask id="mask2_230_1323" style="mask-type:luminance" maskUnits="userSpaceOnUse" x="-117" y="471" width="434" height="434">
<path d="M316.853 614.661L26.6606 471L-117 761.192L173.192 904.853L316.853 614.661Z" fill="white"/>
</mask>
<g mask="url(#mask2_230_1323)">
<path d="M102.717 567.095C106.552 572.952 109.586 575.99 111.031 583.401C111.371 585.151 111.431 588.871 112.324 590.222C112.847 591.015 113.74 591.825 114.17 592.72C115.145 594.756 114.949 596.752 115.246 598.917C115.542 601.081 116.291 603.658 116.01 605.735C115.537 609.252 113.761 611.821 112.394 614.98C111.487 617.08 111.297 617.862 109.927 619.878C106.954 624.258 104.773 626.05 100.161 628.525C97.5492 629.926 95.2019 630.996 92.2666 631.529C89.9141 631.955 87.7806 632.351 85.4931 632.791C75.6511 634.685 65.0589 635.69 55.2941 633.515C46.2183 631.496 38.4663 625.928 30.5643 621.139C27.4638 619.262 25.3326 618.902 21.948 618.284C20.9128 618.095 19.8494 618.008 18.8231 617.762C18.7363 617.781 17.791 618.691 17.6568 618.851C14.9499 622.084 12.8065 625.865 10.7835 629.599C7.12487 636.362 3.21576 643.383 -0.0350066 650.354C-2.15978 654.908 -3.93391 660.275 -6.686 664.527C-7.0197 665.045 -7.6452 665.531 -8.02514 666.154C-8.72834 667.313 -9.34221 668.442 -10.0572 669.573C-12.5306 673.485 -15.3046 677.775 -18.583 680.732C-20.1356 682.13 -20.7873 682.885 -23.0969 682.67C-24.2251 682.564 -25.0368 682.178 -26.0829 681.867C-28.1932 681.243 -30.7898 680.576 -33.0053 680.236C-34.1117 680.066 -35.6627 680.56 -36.3751 680.385C-37.0875 680.21 -37.7793 679.674 -38.4493 679.4C-38.6041 678.929 -38.7974 677.908 -39.203 677.617C-39.5488 677.368 -40.2153 677.323 -40.6907 677.075C-41.0012 676.911 -42.5021 675.99 -42.6285 675.834C-43.1 675.258 -42.7621 674.183 -42.6322 673.594C-41.4403 668.174 -39.7339 662.728 -38.2411 657.361C-35.7398 648.381 -31.7949 639.25 -28.3165 630.525C-26.5028 625.979 -24.5738 621.41 -22.7848 616.855C-20.6454 611.416 -17.1442 607.121 -14.1483 602.252C-13.7129 601.542 -12.4296 599.558 -12.1674 598.995C-12.0248 598.687 -12.1738 598.374 -12.0547 598.01C-11.4526 596.186 -10.2101 595.028 -9.30344 593.537C-4.94778 586.346 0.147067 578.896 5.87072 572.777C7.94769 570.554 10.3575 568.568 12.462 566.44C13.5182 565.372 14.4802 564.108 15.6739 563.376C16.6114 562.802 16.9417 563.062 17.9633 563.083C18.2011 562.903 18.3139 562.571 18.5257 562.384C21.9852 559.336 26.317 557.25 30.1295 554.632C31.2413 553.869 32.5202 553.063 33.6463 552.31C35.2301 551.254 36.6355 549.99 38.5277 549.558C39.0923 549.712 39.1968 550.245 39.4942 550.383C40.1747 550.694 41.649 549.813 42.3468 549.58C46.3847 548.224 49.6731 547.469 53.7526 546.48C54.5581 546.284 55.9874 545.5 56.7579 545.61C58.4129 545.847 58.6048 545.519 60.1454 545.334C63.8615 544.89 67.0674 544.915 70.7093 546.038C73.8801 547.016 78.1752 549.055 81.1387 550.72C83.3279 551.949 85.3068 553.76 87.4522 555.077C92.9608 558.461 99.0787 561.535 102.719 567.092L102.717 567.095ZM83.1892 584.661C82.1793 582.997 81.9015 582.251 80.3986 580.824C76.1397 576.779 70.1223 573.554 64.6747 571.151C64.0241 570.865 63.0279 570.695 62.4018 570.392C59.7652 569.112 58.0829 567.231 54.7104 568.033C47.4681 571.699 39.7493 575.498 33.6615 580.655C33.5542 580.747 33.3494 580.749 33.2513 580.836C32.9748 581.081 32.8506 581.463 32.4506 581.611C32.4031 582.373 32.0609 585.005 32.7045 585.488C33.4378 586.039 34.9332 586.546 35.8244 587.033C40.383 589.506 45.0266 591.828 49.2643 594.767C53.1016 597.43 56.5519 598.601 60.6281 600.722C61.8492 601.359 63.1613 602.073 64.3735 602.761C65.3129 603.294 66.7231 604.548 67.5696 604.883C68.3707 605.199 70.2999 604.928 71.2567 605.282C71.6617 605.431 71.7314 606.015 72.2113 606.072C76.0621 605.591 82.1296 605.121 84.9452 602.171C85.2189 601.886 86.1911 600.889 86.325 600.665C86.6534 600.119 87.8022 597.909 87.8897 597.412C87.9963 596.818 87.5062 595.162 87.4597 594.55C87.345 593.083 87.8151 592.643 86.9703 591.116C85.7743 588.958 84.468 586.769 83.1892 584.661Z" fill="url(#paint15_linear_230_1323)"/>
<path d="M188.229 644.887L188.165 646.501L189.096 648.22C188.355 650.101 187.74 651.918 186.731 653.722C184.443 657.8 182.321 661.187 180.499 665.612C179.103 669.006 177.539 672.197 175.918 675.538C175.26 676.894 174.896 678.334 173.875 679.598C172.08 681.827 171.721 683.545 170.309 685.809C168.897 688.072 167.148 690.253 165.675 692.354C161.886 697.746 157.107 702.114 152.844 707.12C149.871 710.609 146.447 714.135 143.715 717.825C138.387 725.019 132.684 731.967 129.011 740.353C125.618 748.095 122.833 755.786 120.288 763.715C116.371 775.914 112.302 788.131 107.833 800.256C105.856 805.614 103.936 811.042 102.11 816.467C100.465 821.359 97.4562 825.882 96.4066 830.903C96.3583 831.131 96.5254 831.421 96.4591 831.711C96.143 833.082 94.5254 833.775 93.4056 832.862C93.0363 832.562 92.7631 831.677 92.3021 831.452C91.682 831.352 90.8936 831.291 90.298 831.142C85.5733 829.951 81.6264 828.418 77.0755 826.582C76.1264 826.2 73.7078 825.623 73.042 825.113C72.873 824.984 71.938 823.599 71.8813 823.348C71.8602 823.253 71.8275 822.535 71.8453 822.447C72.3746 819.601 73.8725 817.483 75.0225 814.886C77.0473 810.306 78.381 805.658 79.9257 800.957C81.1732 797.156 83.6872 792.346 85.8648 789.019C87.3775 786.708 88.7819 783.884 90.1515 781.444C93.0079 776.347 95.89 770.231 97.7362 764.732C100.857 755.435 106.153 746.914 109.376 737.671C111.482 731.64 113.324 725.608 113.985 719.24C114.461 714.653 114.712 710.514 115.438 705.886C116.376 699.907 116.846 693.665 116.149 687.592C115.209 679.377 108.766 672.982 102.332 668.658C97.199 665.208 91.8666 662.122 86.9634 658.391C83.2798 655.588 79.5518 652.377 76.544 649.025C76.1481 648.583 75.5567 648.164 75.1852 647.647L75.4531 646.903L76.6486 647.298C76.9093 646.667 76.4144 646.105 77.0315 645.466C77.3075 645.105 78.4465 644.973 78.9372 644.825C81.2846 644.12 83.68 643.731 86.0998 643.299C91.7724 642.287 97.7821 641.287 103.642 640.427C103.97 640.379 104.461 640.053 104.728 640.036C105.538 639.988 106.484 640.553 107.264 639.872C108.092 640.362 109.127 640.69 109.93 641.191C112.475 642.791 114.385 645.48 116.62 647.311C118.611 648.94 120.85 650.1 122.96 651.543C123.862 652.157 124.868 653.522 125.554 654.418C126.193 655.255 126.911 656.439 127.523 657.379C128.477 658.841 128.818 660.407 129.544 662.07C130.236 663.658 131.192 665.315 132.026 666.831C132.397 667.506 132.348 668.539 133.489 668.939L133.337 669.33C134.051 669.567 133.978 670.349 134.21 670.748C134.967 672.042 135.512 673.431 136.35 674.638C136.886 675.411 137.839 676.061 138.215 676.777C138.287 676.913 138.378 677.612 138.414 677.649C139.663 679.04 140.633 680.668 141.764 682.422C142.326 683.292 142.36 683.406 143.177 684.127C143.402 684.326 143.472 684.636 143.75 684.773C144.041 684.917 144.283 684.762 144.485 684.81C145.523 685.059 145.616 685.309 146.694 684.714C147.107 684.485 147.76 683.722 148.016 683.551C148.085 683.504 148.312 683.594 148.412 683.523C150.191 682.202 150.663 680.582 151.763 678.752C152.192 678.036 153.347 676.703 153.603 676.121C153.821 675.628 153.409 675.33 154.226 674.861C156.696 669.56 159.827 664.587 161.959 659.137C163.377 655.509 166.023 651.43 167.137 648.064C167.271 647.662 167.091 647.334 167.316 646.931C167.583 646.451 168.221 646.396 168.57 646.057C169.531 645.123 170.57 644.382 171.418 643.304C171.696 642.951 171.807 642.478 172.17 642.04C172.532 641.602 173.574 640.953 174.13 640.856C174.778 640.744 175.603 640.9 176.273 640.931C177.158 640.169 178.178 640.939 179.069 641.157C180.661 641.541 182.821 641.895 184.429 641.999C185.639 642.077 185.561 642.867 186.026 643.223C186.756 643.785 187.805 643.797 188.239 644.894L188.229 644.887Z" fill="url(#paint16_linear_230_1323)"/>
<path d="M19.7155 801.692C19.6932 801.62 18.9278 800.493 18.8719 800.443C18.5921 800.185 18.1461 800.152 17.9052 799.88C17.8466 799.816 17.2669 798.445 17.2429 798.278C17.1909 797.919 17.2519 797.28 17.3737 796.936C18.5249 793.676 21.2239 789.132 22.8496 785.875C27.6377 776.262 32.6103 765.132 38.2901 756.122C40.4505 752.693 42.799 749.314 44.8241 745.773C46.5556 742.745 48.1402 739.59 49.5638 736.388C49.5617 736.19 48.83 735.374 48.6347 735.168C46.5792 732.996 44.372 732.136 42.1212 730.404C41.7649 730.13 41.0998 729.109 40.7315 728.749C40.5922 728.612 39.8129 727.893 39.7403 727.896C39.5901 727.931 39.4321 727.976 39.325 728.094C38.8474 728.621 38.2405 729.534 37.7723 730.133C35.5396 732.984 33.3661 735.042 30.6805 737.435C29.3242 738.646 26.8911 741.294 24.8276 740.718C24.4046 740.6 22.4978 739.656 22.1467 739.391C21.4966 738.901 20.4222 737.642 19.7059 737.148C17.3505 735.516 16.6354 734.641 14.7467 732.688C13.9019 731.813 12.7951 730.913 12.1249 729.915C10.5183 727.522 10.3714 726.747 8.208 724.512C7.19791 723.468 6.33448 722.468 7.32572 721.047C7.52295 720.767 8.08005 720.033 8.28908 719.787C8.3923 719.664 8.63911 719.793 8.75416 719.71C9.73405 719.025 10.6583 718.033 11.5899 717.262C15.4325 714.08 19.3628 710.754 23.4391 707.988C29.2569 704.037 34.9237 699.594 40.3613 695.549C46.9014 690.681 53.432 685.708 60.0762 681.251C62.609 679.552 68.457 675.703 71.3009 674.989C71.6635 674.897 72.0675 674.793 72.4424 674.859C73.0331 675.077 72.8691 675.565 72.9615 675.64C73.7691 676.289 76.3032 676.567 77.3989 676.973C79.3722 677.704 81.0231 679.172 82.8523 680.187C86.5524 682.239 90.2522 684.232 93.9832 686.222C95.5602 687.061 96.4747 687.533 98.0837 688.261C99.1175 688.728 100.087 689.337 101.127 689.765L99.7887 691.926L100.111 692.881C99.8727 693.5 99.4278 694.092 99.2229 694.715C99.0576 695.212 99.1802 695.71 99.0032 696.204C98.6609 697.17 97.939 698.184 97.5424 699.175C97.3088 699.758 97.3863 700.692 96.843 701.293L96.1289 701.331C95.846 701.602 95.1979 703.25 95.8094 702.832C96.1469 702.601 96.1312 701.914 96.5085 701.942C96.1737 702.514 95.9948 703.15 95.7976 703.777C95.2984 705.367 94.6815 707.371 94.1018 708.953C93.8107 709.751 93.1555 710.591 92.8967 711.368C90.9688 717.17 88.3906 722.79 86.3459 728.567C85.0972 732.095 84.2221 735.653 82.8361 739.191C79.9165 746.65 76.681 753.878 73.8224 761.351C70.8535 769.112 67.9288 776.908 64.9105 784.658C62.3863 791.135 59.7361 797.541 57.2805 803.991C57.0265 804.66 56.9511 805.584 56.652 806.325C55.4132 809.409 53.2674 812.888 52.7074 816.155C52.6554 816.463 52.9498 816.822 52.9886 817.129C52.9239 819.109 48.706 816.594 47.954 816.225C45.0537 814.805 42.0729 813.371 39.1041 812.005C34.0327 809.672 28.8559 807.233 23.9372 804.513C23.463 804.249 21.8165 802.904 21.4608 803.093L19.7104 801.696L19.7155 801.692ZM74.0013 694.322C73.7824 693.706 72.306 694.715 72.0282 694.943C71.6186 695.281 71.0098 696.073 70.5383 696.476C64.6702 701.489 58.9668 706.163 52.703 710.754C52.2157 711.111 49.3223 712.754 49.4681 713.231L63.0746 720.157C63.3163 719.976 63.3774 719.703 63.436 719.427C63.7314 718.086 63.7032 716.542 64.0112 715.103C64.0494 714.928 63.941 714.703 64.0115 714.515C66.8132 708.065 69.462 700.957 73.5357 695.237C73.729 694.964 73.8353 694.619 73.9961 694.326L74.0013 694.322Z" fill="url(#paint17_linear_230_1323)"/>
<path d="M61.616 658.978C61.6485 659.017 61.6064 659.167 61.6807 659.272C62.2921 660.141 62.9285 660.449 62.7145 661.737C62.5993 662.421 62.1496 662.447 61.7725 662.823C60.4245 664.168 59.0076 665.161 57.5372 666.367C42.2811 678.884 26.2467 690.948 12.1173 704.822C7.23363 709.617 2.19255 714.932 -2.95493 719.241C-4.07642 720.18 -5.46067 720.892 -6.37516 722.053C-6.59492 722.536 -4.86904 723.636 -4.46158 724.068C-3.07384 725.544 -1.91324 727.603 -0.832224 729.209C0.908649 731.801 2.34217 734.688 4.18724 737.076C7.24671 741.036 10.2971 745.001 12.9593 749.123C14.334 751.252 15.4542 753.57 16.8307 755.813C17.41 756.76 18.6296 757.674 18.5235 759.019C18.4901 759.426 17.8747 760.499 17.6064 760.839C17.5303 760.934 17.3276 760.82 17.1479 760.955C14.1664 763.234 10.8333 766.138 7.65978 768.06C6.09886 769.005 4.19046 769.606 2.63605 770.557C1.49545 771.254 0.493256 772.2 -0.646056 772.894C-2.15908 773.821 -3.97057 774.344 -5.47617 775.183C-6.98176 776.023 -8.90979 777.886 -10.6745 777.785C-11.0142 777.766 -11.2476 777.741 -11.5543 777.563C-14.1606 776.066 -17.9565 770.118 -19.6913 767.441C-21.6621 764.399 -23.1477 761.441 -24.7642 758.186C-29.4607 748.726 -33.7541 738.608 -38.3962 728.803C-38.5025 728.469 -38.5204 728.198 -38.4038 727.858C-38.104 726.965 -37.1428 725.173 -36.6445 724.304C-36.3806 723.843 -35.9786 723.554 -35.7352 723.153C-33.3975 719.32 -31.3432 715.314 -28.9106 711.57C-25.5567 706.409 -22.3448 701.09 -18.7866 696.124C-14.7772 690.527 -11.0493 684.892 -7.33788 679.009C-2.80333 671.815 3.06081 665.817 8.42772 659.308C13.8669 652.711 19.4325 646.304 26.5175 641.204L27.3952 638.948L30.2162 639.652C30.7452 640.001 30.6585 640.68 31.1748 641.107C38.4917 647.116 48.0125 649.856 56.1658 654.614C56.7609 654.96 58.3362 656.005 58.7786 656.444C59.048 656.71 59.0467 657.027 59.2937 657.214C60.3015 657.987 60.627 657.702 61.6172 658.969L61.616 658.978Z" fill="url(#paint18_linear_230_1323)"/>
<path d="M201.716 585.937C202.874 587.244 204.429 588.493 205.619 589.865C206.502 590.884 207.032 592.185 207.86 593.238C209.172 594.913 210.941 596.514 212.22 598.02C215.578 601.966 218.968 606.785 222.035 611.227C225.744 616.605 228.895 622.23 232.786 627.75C237.767 634.819 244.031 642.988 243.947 652.54C243.941 653.297 243.993 654.499 243.741 655.348C243.391 656.524 242.33 658.596 241.277 659.22C240.371 659.757 238.025 659.628 236.944 659.675C232.585 659.869 228.309 659.877 224.035 659.356C222.435 659.158 220.318 658.764 218.943 657.705C218.85 657.633 217.468 656.124 217.367 655.996C216.331 654.691 215.745 652.661 214.336 651.769L214.785 650.497C214.227 649.519 213.696 648.548 213.122 647.578C210.386 642.944 208.616 639.215 206.393 634.33C205.061 631.403 204.205 629.812 202.482 627.183C200.491 624.143 199.319 620.028 197.716 616.734C196.867 615.182 194.403 616.2 193.085 616.635C189.105 617.951 183.83 621.242 180.703 623.992C179.366 625.171 177.07 627.136 176.025 628.673C175.534 629.397 175.667 630.65 175.181 631.37C174.873 631.829 173.76 632.484 173.44 632.882C169.518 637.733 168.243 640.309 162.099 642.88C157.122 644.963 152.807 646.198 147.344 645.414C144.436 644.46 142.015 642.647 139.889 640.624C134.692 635.684 132.808 630.226 130.844 623.348C128.867 616.424 127.669 609.2 127.052 602.006C126.7 597.908 126.997 592.793 126.091 588.874C125.918 588.125 125.466 587.927 125.257 587.39C124.961 586.642 125.033 583.621 124.642 583.117C124.454 582.876 124.172 582.852 124.03 582.669C123.523 582.02 123.27 576.697 123.084 575.438C122.264 569.85 120.401 564.661 117.586 559.771C116.579 558.021 115.083 556.417 114.597 554.407C114.39 553.545 114.352 552.543 115.107 551.881C115.204 551.797 116.894 551.414 117.198 551.27C117.37 551.19 117.439 550.882 117.576 550.814C119.839 549.705 120.542 550.442 122.826 550.812C128.89 551.793 134.521 551.689 139.974 555.158C140.993 555.805 142.044 556.629 142.939 557.46C143.16 557.667 143.504 557.718 143.715 557.886C143.821 557.972 143.705 558.179 143.773 558.265C144.499 559.197 144.779 560.192 144.929 561.392C145.091 562.692 144.254 563.494 143.89 564.575C143.683 565.197 143.747 566.386 143.594 566.918C143.37 567.691 142.642 568.527 142.456 569.308C142.346 569.771 142.443 570.948 142.366 571.463C142.209 572.492 141.808 573.758 141.704 574.754C141.44 577.325 142.213 579.574 141.343 582.193C141.038 583.116 139.838 584.246 140.413 585.129C140.244 585.653 139.711 586.272 139.598 586.776C139.57 586.898 139.81 586.988 139.779 587.108C138.705 591.467 139.209 596.173 139.37 600.859L139.713 601.087C139.214 601.755 139.673 602.063 139.725 602.565C139.906 604.317 139.849 606.287 140.193 608.042C140.235 608.264 140.57 608.876 140.571 608.944C140.586 609.372 139.958 609.556 140.646 609.864C140.805 610.557 140.95 612.25 141.199 612.865C141.311 613.14 141.662 613.437 141.814 613.784C142.474 615.301 142.789 617.145 144.167 618.413C145.052 619.226 145.944 619.639 146.88 620.328C147.169 620.542 147.291 620.955 147.693 621.235C148.99 622.136 150.295 622.087 151.751 622.203L152.062 621.849C152.722 622.295 153.538 622.036 153.758 621.259C154.345 621.857 155.617 620.947 155.888 620.936C156.083 620.928 156.29 621.144 156.498 621.173C156.753 621.208 157.053 620.668 157.641 621.211L157.867 620.851L158.328 620.947L158.633 620.331C159.266 620.574 160.02 620.3 160.659 620.131C160.977 619.425 161.397 618.753 161.695 618.04C162.271 616.647 163.048 614.234 163.355 612.759C163.732 610.946 163.345 609.147 163.575 607.375C164.121 603.208 166.11 599.367 167.272 595.385C168.132 592.44 168.278 591.303 170.06 588.65C171.496 586.515 172.937 584.388 174.544 582.357C175.252 581.462 176.214 580.198 177.142 579.571C178.143 578.896 183.846 577.155 184.995 577.148C190.122 577.115 196.784 581.422 200.487 584.879C200.815 585.184 201.56 585.769 201.712 585.945L201.716 585.937Z" fill="url(#paint19_linear_230_1323)"/>
<path d="M208.044 654.719C208.099 654.817 208.004 655.061 208.155 655.207C208.488 655.533 209.863 655.82 209.695 656.48C209.448 657.442 209.004 657.241 208.932 657.328C208.82 657.464 208.292 660.294 208.226 660.734C208.15 661.253 208.559 662.426 208.497 662.767C208.35 663.567 207.717 665.023 207.489 666.058C207.064 668.002 206.973 670.936 206.447 672.665C205.632 675.35 203.184 678.55 202.179 681.306C201.991 681.821 202.065 682.34 201.924 682.807C201.314 684.856 200.731 686.864 200.418 688.98L201.387 692.099C203.64 693.46 205.559 695.235 207.316 692.32C208.233 690.801 208.837 689.476 209.844 687.925C211.818 684.878 212.523 681.22 213.563 677.931C213.982 676.599 215.303 675.616 216.655 675.519C219.112 675.345 220.972 676.097 223.192 676.785C224.427 677.167 226.373 676.985 227.699 677.202C229.843 677.555 232.971 678.528 234.811 679.717C235.769 680.337 236.457 681.279 237.718 681.699C238.223 681.868 239.279 681.635 240.009 681.841C243.016 682.692 245.281 686.042 246.479 688.757C247.677 691.472 247.061 693.285 247.348 696.135C247.517 697.806 247.984 699.438 248.118 701.093C248.214 702.246 247.939 707.747 248.205 708.177C248.296 708.325 248.567 708.392 248.658 708.549C248.902 708.984 249.342 709.865 249.277 710.35C249.167 711.166 248.6 712.554 248.44 713.465C247.867 716.739 248.209 719.014 247.293 722.464C247.165 722.945 247.242 723.992 247.099 724.535C246.241 727.811 244.492 730.241 243.332 733.244C241.649 737.596 240.664 742.102 238.725 746.482C237.281 749.739 235.36 752.724 233.592 755.766C229.579 762.664 225.953 769.76 222.009 776.673C220.53 779.269 219.19 781.578 217.205 783.759C216.714 784.299 216.575 784.718 215.826 785.094C214.716 785.651 214.287 785.047 213.333 784.818C213.194 784.784 213.094 785.007 212.999 785.002C208.619 784.768 207.402 782.888 204.227 780.313C203.911 780.056 203.397 779.937 203.013 779.66C201.412 778.499 198.318 773.836 197.739 771.884C197.38 770.674 198.095 770.132 199.181 770.748C199.912 770.01 199.281 769.096 199.503 768.339C199.814 767.28 200.379 766.929 200.892 766.206C201.507 765.337 202.372 763.837 203.02 763.078C203.29 762.762 204.429 762.145 204.624 761.889C208.871 756.251 210.704 748.099 214.443 742.055C215.611 740.166 217.257 738.141 218.378 736.237C219.341 734.605 219.996 732.601 220.973 730.995C225.425 723.687 231.658 718.25 230.847 708.899C230.671 706.851 230.045 703.679 227.967 702.78C227.504 702.58 227.218 702.68 226.831 702.573C225.756 702.274 224.283 701.768 223.141 701.775C221.502 701.785 220.799 703.135 219.603 703.708C218.634 704.169 218.728 703.756 217.742 704.646C214.178 707.859 211.822 710.416 208.95 714.269C205.915 718.343 199.152 726.946 193.558 727.049C191.786 727.08 190.283 726.372 188.675 725.87C184.842 724.668 178.996 722.502 177.531 718.413C175.486 712.71 175.019 705.859 176.666 700.056C178.586 693.283 179.594 686.53 182.381 679.953C184.131 675.823 186.083 671.646 187.971 667.564C189.018 665.298 190.254 663.743 191.427 661.687C193.763 657.588 194.765 654.297 197.793 650.488C198.332 649.81 198.496 649.296 199.507 649.253C200.565 649.383 200.042 650.388 200.215 650.684C200.252 650.748 201.122 651.728 201.183 651.775C202.404 652.712 204.09 652.331 205.427 652.818C206.471 653.199 207.493 653.728 208.045 654.709L208.044 654.719Z" fill="url(#paint20_linear_230_1323)"/>
<path d="M166.317 718.02C166.349 718.055 166.278 718.237 166.339 718.329C167.399 719.846 168.32 721.638 169.253 723.125C170.28 724.762 172.453 727.2 172.764 729.113C172.902 729.964 172.642 730.783 172.738 731.604C172.875 732.81 173.536 732.61 172.329 734.069C170.663 736.088 166.783 737.916 164.547 739.341C163.078 740.277 161.064 742.3 159.233 742.633C158.871 742.699 158.238 742.389 157.816 742.811C157.863 743.349 157.703 743.849 157.647 744.367C157.332 747.252 157.91 750.2 158.215 753C158.31 753.862 158.297 754.735 158.382 755.537C158.552 757.148 159.441 758.6 160.052 760.084L160.912 760.364C162.802 759.135 165.051 758.493 166.937 757.243C168.332 756.32 169.526 754.973 171.001 754.255C171.478 754.271 171.859 754.592 172.182 754.914C173.884 756.617 175.547 760.655 176.782 762.922C177.089 763.485 177.963 764.555 178.216 765.201C178.432 765.751 178.37 766.587 178.76 767.1L178.626 767.37C178.06 767.272 178.037 767.784 177.712 768.014C177.658 768.052 177.494 767.997 177.408 768.055C171.5 772.042 164.726 775.795 157.956 778.436C157.094 778.773 154.533 779.358 154.072 779.971C153.771 780.375 153.896 780.861 153.714 781.327C152.315 784.917 151.33 787.854 151.473 791.761C151.526 793.233 152.301 794.092 152.453 795.144C152.665 796.63 151.486 797.835 154 796.764C159.624 794.367 165.775 791.696 171.06 788.672C174.575 786.66 177.511 783.964 181.289 782.428C182.162 782.075 183.457 781.603 184.35 781.719L184.863 781.135L186.297 782.922C188.764 786.909 196.537 789.725 197.64 794.395C197.677 794.542 197.469 794.779 197.538 795.078C197.795 796.205 199.113 797.065 197.7 798.286C197.524 798.438 196.557 798.817 196.372 798.949C191.927 802.172 188.245 804.735 183.212 806.917C179.723 808.431 176.39 809.97 172.939 811.603C169.712 813.13 164.424 813.882 160.842 814.923C155.364 816.516 149.878 818.875 144.457 820.476C141.842 821.249 139.291 821.927 136.782 822.887C131.121 825.05 125.513 827.186 119.612 828.398C119.367 828.448 118.881 828.745 118.698 828.761C118.559 828.773 117.231 828.646 117.164 828.606L116.942 828.316C117.247 827.68 117.172 827.145 117.23 826.472C117.425 824.211 118.138 822.626 118.81 820.368C120.837 813.554 122.524 806.633 124.452 799.818C125.873 794.791 126.719 789.627 128.08 784.55C129.266 780.13 130.204 775.562 131.38 771.163C131.825 769.498 132.399 768.142 132.805 766.551C134.125 761.35 135.19 755.81 136.323 750.494C136.881 747.885 137.528 745.382 137.926 742.755C138.044 741.989 138.441 741.441 137.863 740.622L138.452 739.804L137.889 739.877C138.327 738.914 138.938 737.764 139.243 736.763C139.593 735.611 139.475 734.08 139.779 732.924C139.961 732.235 140.811 730.434 141.315 729.939C141.925 729.339 142.519 729.995 143.338 729.563C143.644 729.401 144.024 728.955 144.227 728.852C144.792 728.566 145.789 728.231 146.495 727.817C149.743 725.903 152.146 722.833 155.447 721.3C156.787 720.677 158.716 720.445 159.957 719.82C161.024 719.284 163.437 717.306 164.519 717.243C164.912 717.221 166.07 717.729 166.308 718.012L166.317 718.02Z" fill="url(#paint21_linear_230_1323)"/>
<path d="M96.4835 702.189C96.1793 702.627 95.8725 703.064 95.5696 703.499" stroke="url(#paint22_linear_230_1323)" stroke-width="2" stroke-linecap="round" stroke-linejoin="round"/>
</g>
</g>
</g>
<defs>
<linearGradient id="paint0_linear_230_1323" x1="125.704" y1="9.34024" x2="72.9535" y2="117.774" gradientUnits="userSpaceOnUse">
<stop stop-color="#B55722"/>
<stop offset="1" stop-color="#EFB082"/>
</linearGradient>
<linearGradient id="paint1_linear_230_1323" x1="28.7097" y1="75.0337" x2="-16.2861" y2="167.551" gradientUnits="userSpaceOnUse">
<stop stop-color="#B55722"/>
<stop offset="1" stop-color="#EFB082"/>
</linearGradient>
<linearGradient id="paint2_linear_230_1323" x1="3.99096" y1="31.6689" x2="-32.6112" y2="106.917" gradientUnits="userSpaceOnUse">
<stop stop-color="#B55722"/>
<stop offset="1" stop-color="#EFB082"/>
</linearGradient>
<linearGradient id="paint3_linear_230_1323" x1="30.0548" y1="2.08779" x2="1.6258" y2="60.543" gradientUnits="userSpaceOnUse">
<stop stop-color="#B55722"/>
<stop offset="1" stop-color="#EFB082"/>
</linearGradient>
<linearGradient id="paint4_linear_230_1323" x1="145.664" y1="124.37" x2="74.9569" y2="269.499" gradientUnits="userSpaceOnUse">
<stop stop-color="#B55722"/>
<stop offset="1" stop-color="#EFB082"/>
</linearGradient>
<linearGradient id="paint5_linear_230_1323" x1="24.3646" y1="195.225" x2="-10.8672" y2="267.649" gradientUnits="userSpaceOnUse">
<stop stop-color="#B55722"/>
<stop offset="1" stop-color="#EFB082"/>
</linearGradient>
<linearGradient id="paint6_linear_230_1323" x1="-39.9994" y1="148.04" x2="-75.5236" y2="221.066" gradientUnits="userSpaceOnUse">
<stop stop-color="#B55722"/>
<stop offset="1" stop-color="#EFB082"/>
</linearGradient>
<linearGradient id="paint7_linear_230_1323" x1="21.4981" y1="119.493" x2="21.3942" y2="119.706" gradientUnits="userSpaceOnUse">
<stop stop-color="#B55722"/>
<stop offset="1" stop-color="#EFB082"/>
</linearGradient>
<linearGradient id="paint8_linear_230_1323" x1="259.915" y1="502.481" x2="330.719" y2="404.873" gradientUnits="userSpaceOnUse">
<stop stop-color="#B55722"/>
<stop offset="1" stop-color="#EFB082"/>
</linearGradient>
<linearGradient id="paint9_linear_230_1323" x1="366.855" y1="454.657" x2="427.255" y2="371.375" gradientUnits="userSpaceOnUse">
<stop stop-color="#B55722"/>
<stop offset="1" stop-color="#EFB082"/>
</linearGradient>
<linearGradient id="paint10_linear_230_1323" x1="383.656" y1="501.66" x2="432.786" y2="433.924" gradientUnits="userSpaceOnUse">
<stop stop-color="#B55722"/>
<stop offset="1" stop-color="#EFB082"/>
</linearGradient>
<linearGradient id="paint11_linear_230_1323" x1="352.845" y1="526.258" x2="391.007" y2="473.637" gradientUnits="userSpaceOnUse">
<stop stop-color="#B55722"/>
<stop offset="1" stop-color="#EFB082"/>
</linearGradient>
<linearGradient id="paint12_linear_230_1323" x1="260.263" y1="385.734" x2="355.132" y2="255.113" gradientUnits="userSpaceOnUse">
<stop stop-color="#B55722"/>
<stop offset="1" stop-color="#EFB082"/>
</linearGradient>
<linearGradient id="paint13_linear_230_1323" x1="392.036" y1="337.053" x2="439.327" y2="271.859" gradientUnits="userSpaceOnUse">
<stop stop-color="#B55722"/>
<stop offset="1" stop-color="#EFB082"/>
</linearGradient>
<linearGradient id="paint14_linear_230_1323" x1="381.689" y1="412.13" x2="381.828" y2="411.937" gradientUnits="userSpaceOnUse">
<stop stop-color="#B55722"/>
<stop offset="1" stop-color="#EFB082"/>
</linearGradient>
<linearGradient id="paint15_linear_230_1323" x1="-13.476" y1="597.792" x2="94.5738" y2="651.325" gradientUnits="userSpaceOnUse">
<stop stop-color="#B55722"/>
<stop offset="1" stop-color="#EFB082"/>
</linearGradient>
<linearGradient id="paint16_linear_230_1323" x1="51.5147" y1="695.259" x2="143.704" y2="740.922" gradientUnits="userSpaceOnUse">
<stop stop-color="#B55722"/>
<stop offset="1" stop-color="#EFB082"/>
</linearGradient>
<linearGradient id="paint17_linear_230_1323" x1="7.97212" y1="719.663" x2="82.9537" y2="756.808" gradientUnits="userSpaceOnUse">
<stop stop-color="#B55722"/>
<stop offset="1" stop-color="#EFB082"/>
</linearGradient>
<linearGradient id="paint18_linear_230_1323" x1="-21.4197" y1="693.386" x2="36.8284" y2="722.237" gradientUnits="userSpaceOnUse">
<stop stop-color="#B55722"/>
<stop offset="1" stop-color="#EFB082"/>
</linearGradient>
<linearGradient id="paint19_linear_230_1323" x1="101.694" y1="578.664" x2="246.309" y2="650.418" gradientUnits="userSpaceOnUse">
<stop stop-color="#B55722"/>
<stop offset="1" stop-color="#EFB082"/>
</linearGradient>
<linearGradient id="paint20_linear_230_1323" x1="171.672" y1="700.472" x2="243.839" y2="736.227" gradientUnits="userSpaceOnUse">
<stop stop-color="#B55722"/>
<stop offset="1" stop-color="#EFB082"/>
</linearGradient>
<linearGradient id="paint21_linear_230_1323" x1="124.022" y1="764.494" x2="196.79" y2="800.545" gradientUnits="userSpaceOnUse">
<stop stop-color="#B55722"/>
<stop offset="1" stop-color="#EFB082"/>
</linearGradient>
<linearGradient id="paint22_linear_230_1323" x1="95.9201" y1="702.791" x2="96.1331" y2="702.897" gradientUnits="userSpaceOnUse">
<stop stop-color="#B55722"/>
<stop offset="1" stop-color="#EFB082"/>
</linearGradient>
<clipPath id="clip0_230_1323">
<rect width="390" height="812" rx="40" fill="white"/>
</clipPath>
<clipPath id="clip1_230_1323">
<rect width="323.805" height="323.805" fill="white" transform="translate(252.783 48.5596) rotate(115.924)"/>
</clipPath>
<clipPath id="clip2_230_1323">
<rect width="323.805" height="323.805" fill="white" transform="translate(141.593 441.76) rotate(-54.0612)"/>
</clipPath>
<clipPath id="clip3_230_1323">
<rect width="323.805" height="323.805" fill="white" transform="translate(26.6606 471) rotate(26.3379)"/>
</clipPath>
</defs>
</svg>
