<svg width="183" height="183" viewBox="0 0 183 183" fill="none" xmlns="http://www.w3.org/2000/svg">
<path d="M91.4994 183C142.033 183 182.999 142.034 182.999 91.5C182.999 40.9659 142.033 0 91.4994 0C40.9657 0 0 40.9659 0 91.5C0 142.034 40.9657 183 91.4994 183Z" fill="#B55722"/>
<path d="M90.5672 170.407C134.445 170.407 170.015 134.836 170.015 90.9581C170.015 47.0799 134.445 11.5095 90.5672 11.5095C46.6892 11.5095 11.1191 47.0799 11.1191 90.9581C11.1191 134.836 46.6892 170.407 90.5672 170.407Z" fill="#EFB082"/>
<g clip-path="url(#clip0_212_1066)">
<mask id="mask0_212_1066" style="mask-type:luminance" maskUnits="userSpaceOnUse" x="18" y="22" width="144" height="144">
<path d="M162 22H18V166H162V22Z" fill="white"/>
</mask>
<g mask="url(#mask0_212_1066)">
<path d="M67.2719 45.2921C69.9557 46.8699 71.7643 47.4822 73.8023 50.1506C74.2831 50.7809 75.0411 52.2518 75.6637 52.614C76.0285 52.8267 76.5441 52.9736 76.8922 53.2456C77.6824 53.8644 77.9982 54.6984 78.5434 55.5028C79.0887 56.3071 79.8957 57.1863 80.1935 58.0693C80.6988 59.5646 80.4977 60.9388 80.5763 62.4676C80.6292 63.4834 80.7078 63.8327 80.5595 64.9065C80.2386 67.2384 79.7229 68.3831 78.3733 70.2793C77.6089 71.3531 76.8844 72.2425 75.8197 73.034C74.9663 73.6683 74.1941 74.247 73.3691 74.8735C69.8204 77.5703 65.7972 80.0607 61.4762 81.1203C57.4608 82.1065 53.2726 81.4168 49.1786 81.0675C47.5724 80.9308 46.652 81.208 45.1812 81.6295C44.7313 81.7584 44.2905 81.9337 43.8328 82.0381C43.8019 82.0626 43.6047 82.6118 43.5828 82.702C43.1419 84.5247 43.0336 86.4545 42.964 88.3417C42.8403 91.759 42.6675 95.3284 42.7474 98.7483C42.799 100.982 43.1509 103.471 42.8931 105.709C42.8622 105.981 42.7088 106.298 42.6804 106.622C42.6288 107.223 42.6069 107.794 42.5451 108.385C42.3311 110.432 42.072 112.689 41.3488 114.515C41.0059 115.378 40.8951 115.808 39.9321 116.178C39.4616 116.358 39.062 116.365 38.5838 116.447C37.6195 116.615 36.4529 116.861 35.5029 117.163C35.0285 117.313 34.5077 117.816 34.1893 117.887C33.871 117.958 33.4894 117.881 33.1684 117.904C33.0137 117.746 32.7353 117.378 32.5161 117.342C32.3292 117.311 32.0547 117.424 31.8162 117.419C31.6602 117.415 30.8803 117.344 30.7991 117.307C30.4975 117.17 30.4201 116.675 30.3557 116.415C29.7614 114.02 29.367 111.513 28.9029 109.079C28.1282 105.007 27.8987 100.589 27.5636 96.4254C27.3895 94.2559 27.2568 92.0542 27.0711 89.886C26.8507 87.2962 27.3986 84.8934 27.6319 82.3617C27.6654 81.993 27.7853 80.9489 27.7788 80.673C27.775 80.5222 27.6538 80.4268 27.6293 80.2579C27.5094 79.4123 27.7763 78.7059 27.8433 77.9325C28.1604 74.2071 28.7211 70.2329 29.7949 66.6648C30.1842 65.3693 30.7527 64.1021 31.1717 62.8388C31.3818 62.2046 31.5158 61.5111 31.8471 60.9839C32.1075 60.5701 32.2906 60.6088 32.7018 60.4154C32.7611 60.2968 32.7404 60.1421 32.7881 60.0261C33.5654 58.1286 34.8803 56.4425 35.8832 54.6468C36.1758 54.1235 36.5264 53.5498 36.8268 53.0278C37.2496 52.2943 37.5603 51.5131 38.2293 50.9678C38.4845 50.9176 38.6315 51.1096 38.7771 51.1058C39.1097 51.0955 39.5235 50.4535 39.7555 50.2228C41.0974 48.886 42.2589 47.936 43.6897 46.7371C43.9721 46.5 44.3871 45.9057 44.7158 45.7974C45.4223 45.5654 45.4339 45.3965 46.0114 45.0188C47.4048 44.1087 48.6874 43.4861 50.3607 43.2154C51.8173 42.9795 53.9314 42.9447 55.4409 43.0233C56.5559 43.0814 57.7019 43.4126 58.8169 43.5145C61.6799 43.7762 64.7247 43.7942 67.2719 45.2908V45.2921ZM62.9548 56.146C62.2239 55.682 61.9661 55.4396 61.0857 55.1676C58.59 54.3955 55.5556 54.2975 52.9104 54.4148C52.5946 54.429 52.1641 54.5579 51.8547 54.5605C50.5514 54.5708 49.5099 54.1531 48.3239 55.138C46.1609 58.028 43.8341 61.0651 42.4252 64.3213C42.4007 64.3793 42.3195 64.4205 42.2976 64.4747C42.2357 64.6268 42.2615 64.8034 42.1313 64.9413C42.2628 65.2545 42.6456 66.3709 42.9975 66.4366C43.3984 66.5114 44.0945 66.4186 44.5457 66.4366C46.8505 66.523 49.1592 66.532 51.428 66.8672C53.4828 67.1714 55.0889 66.9574 57.1321 66.9986C57.7444 67.0115 58.4083 67.0373 59.027 67.0721C59.5066 67.0992 60.3161 67.3209 60.7196 67.2874C61.1011 67.2552 61.8166 66.7666 62.2677 66.7189C62.4585 66.6983 62.6016 66.9174 62.804 66.8452C64.2439 65.8939 66.5693 64.5095 67.1095 62.7782C67.1623 62.6107 67.3531 62.0216 67.3621 61.9056C67.3853 61.6232 67.4072 60.5159 67.3441 60.3007C67.2693 60.0429 66.7472 59.4795 66.608 59.2449C66.2729 58.6829 66.3734 58.4148 65.7353 57.9726C64.833 57.3487 63.8803 56.7338 62.9548 56.146Z" fill="#5F4533"/>
<path d="M116.701 59.4241L116.994 60.0802L117.704 60.5817C117.78 61.4776 117.893 62.3232 117.847 63.241C117.74 65.3177 117.562 67.0863 117.709 69.2094C117.822 70.8375 117.829 72.4178 117.842 74.0691C117.847 74.7394 117.986 75.3853 117.829 76.0904C117.553 77.333 117.749 78.0884 117.633 79.2692C117.517 80.45 117.25 81.6643 117.077 82.7922C116.631 85.6888 115.589 88.3726 114.877 91.2085C114.381 93.186 113.712 95.2665 113.351 97.2761C112.647 101.195 111.745 105.089 111.935 109.156C112.111 112.911 112.518 116.526 113.068 120.188C113.914 125.822 114.703 131.494 115.314 137.209C115.583 139.734 115.889 142.276 116.232 144.799C116.541 147.073 116.234 149.469 116.807 151.677C116.832 151.778 116.956 151.86 116.987 151.989C117.132 152.598 116.624 153.193 115.997 153.05C115.791 153.004 115.507 152.705 115.279 152.706C115.012 152.788 114.686 152.92 114.419 152.978C112.301 153.435 110.426 153.603 108.25 153.769C107.796 153.804 106.718 154.052 106.352 153.979C106.26 153.961 105.614 153.594 105.542 153.505C105.514 153.472 105.36 153.192 105.349 153.153C104.999 151.914 105.178 150.775 105.124 149.513C105.027 147.288 104.642 145.173 104.33 142.994C104.077 141.233 104.13 138.82 104.341 137.064C104.488 135.845 104.491 134.442 104.555 133.2C104.688 130.605 104.63 127.599 104.281 125.043C103.69 120.722 104.12 116.281 103.581 111.961C103.23 109.142 102.774 106.374 101.781 103.706C101.066 101.784 100.349 100.085 99.7253 98.0973C98.9196 95.5295 97.8755 92.9488 96.3995 90.6658C94.404 87.5772 90.5742 86.2998 87.1569 85.846C84.4306 85.4838 81.6965 85.3059 79.0062 84.7864C76.9849 84.3958 74.8657 83.8518 73.0056 83.1093C72.7607 83.0114 72.4423 82.9611 72.1922 82.8283L72.1522 82.479L72.7065 82.4004C72.6859 82.0974 72.3778 81.9711 72.4977 81.5947C72.5364 81.3962 72.9643 81.119 73.1306 80.963C73.9273 80.2193 74.8051 79.5915 75.6843 78.9418C77.7455 77.4194 79.9433 75.8352 82.1089 74.336C82.2301 74.2522 82.3616 74.0253 82.4647 73.966C82.778 73.7868 83.2665 73.8255 83.4431 73.4001C83.8698 73.4323 84.3468 73.3589 84.7657 73.4001C86.096 73.5355 87.3877 74.2303 88.6393 74.519C89.7544 74.7755 90.8759 74.7962 92.0012 74.9547C92.482 75.0218 93.1524 75.3672 93.6022 75.5889C94.0225 75.7965 94.542 76.1265 94.9712 76.3804C95.6402 76.7749 96.085 77.3318 96.7024 77.8512C97.2915 78.3475 97.9992 78.8193 98.6309 79.2589C98.9119 79.4548 99.0962 79.8764 99.6299 79.8106L99.6467 79.9963C99.9779 79.9498 100.103 80.276 100.274 80.3894C100.831 80.7555 101.322 81.2015 101.895 81.5173C102.261 81.7197 102.769 81.7906 103.06 82.002C103.116 82.042 103.29 82.3024 103.311 82.3101C104.084 82.6182 104.791 83.0758 105.588 83.5515C105.984 83.7874 106.02 83.8261 106.488 83.9524C106.617 83.9872 106.706 84.0968 106.844 84.0968C106.988 84.0968 107.054 83.9872 107.144 83.9666C107.607 83.8609 107.693 83.9421 108.005 83.4922C108.125 83.3195 108.234 82.8863 108.303 82.7677C108.321 82.7355 108.429 82.7265 108.455 82.6788C108.903 81.8009 108.772 81.0623 108.849 80.1161C108.879 79.7462 109.076 78.9869 109.063 78.7046C109.053 78.4648 108.83 78.4275 109.063 78.0794C109.001 75.4794 109.268 72.8793 109.043 70.287C108.892 68.561 109.142 66.4134 108.921 64.8523C108.896 64.6654 108.759 64.57 108.769 64.3651C108.781 64.1214 109.025 63.9732 109.097 63.7695C109.295 63.2075 109.563 62.7073 109.688 62.1105C109.73 61.9146 109.681 61.7044 109.739 61.4582C109.797 61.212 110.084 60.748 110.287 60.5997C110.522 60.427 110.882 60.3264 111.155 60.2066C111.358 59.7283 111.916 59.834 112.314 59.7451C113.025 59.5839 113.955 59.299 114.617 59.0232C115.114 58.8156 115.239 59.1456 115.494 59.1959C115.897 59.2758 116.317 59.0735 116.706 59.4254L116.701 59.4241Z" fill="#5F4533"/>
<path d="M80.4783 155.167C80.4551 155.142 79.9279 154.844 79.8956 154.835C79.7332 154.788 79.5489 154.862 79.3994 154.802C79.3633 154.788 78.8618 154.356 78.8193 154.294C78.7278 154.161 78.6259 153.894 78.6066 153.733C78.4222 152.207 78.6014 149.863 78.6066 148.244C78.6182 143.468 78.4042 138.052 78.8902 133.34C79.0745 131.547 79.3439 129.737 79.4522 127.926C79.545 126.378 79.554 124.808 79.4896 123.251C79.4496 123.172 78.9972 122.992 78.8786 122.948C77.6308 122.488 76.5815 122.58 75.3427 122.334C75.1467 122.296 74.6801 122.02 74.4622 121.949C74.3797 121.922 73.9273 121.789 73.8989 121.804C73.8461 121.848 73.7919 121.897 73.7726 121.966C73.6862 122.27 73.6244 122.753 73.556 123.084C73.2286 124.661 72.7684 125.91 72.1703 127.394C71.8686 128.144 71.4213 129.679 70.4855 129.857C70.2934 129.893 69.3472 129.893 69.1552 129.857C68.7994 129.79 68.1226 129.5 67.7398 129.445C66.4791 129.259 66.0215 129.052 64.8832 128.646C64.374 128.464 63.7553 128.323 63.2912 128.058C62.1788 127.421 61.9674 127.141 60.6641 126.677C60.0557 126.461 59.5143 126.232 59.629 125.471C59.6522 125.32 59.7295 124.918 59.7643 124.778C59.7811 124.709 59.9048 124.711 59.9345 124.656C60.1897 124.189 60.3625 123.612 60.5816 123.121C61.4852 121.094 62.3953 118.993 63.4743 117.086C65.0134 114.364 66.3953 111.475 67.7643 108.79C69.4104 105.56 71.032 102.289 72.8006 99.202C73.4748 98.0251 75.0462 95.3374 76.0388 94.4918C76.1651 94.3835 76.3056 94.2623 76.468 94.2146C76.7465 94.185 76.7774 94.4118 76.829 94.4235C77.2788 94.5227 78.3436 94.1334 78.8605 94.0793C79.7912 93.9813 80.7387 94.2404 81.6681 94.2842C83.5476 94.3719 85.4154 94.4363 87.2949 94.4931C88.0889 94.5163 88.5466 94.524 89.3316 94.4969C89.8356 94.4789 90.3422 94.5304 90.8411 94.4956L90.7341 95.621L91.0512 95.9381C91.0783 96.232 91.0177 96.5556 91.0589 96.8443C91.0912 97.0751 91.2381 97.2491 91.2652 97.4811C91.3193 97.9336 91.2317 98.4801 91.2691 98.9532C91.291 99.2317 91.5062 99.5887 91.4083 99.9355L91.1311 100.091C91.0718 100.255 91.1389 101.04 91.3 100.753C91.3889 100.594 91.2471 100.323 91.4031 100.26C91.3825 100.554 91.4366 100.843 91.4817 101.132C91.5965 101.864 91.746 102.784 91.8272 103.529C91.8685 103.905 91.7731 104.369 91.8234 104.73C92.1998 107.422 92.281 110.171 92.6058 112.876C92.8043 114.529 93.1575 116.12 93.3032 117.803C93.6113 121.352 93.7479 124.871 94.0831 128.413C94.4311 132.092 94.8037 135.777 95.1298 139.461C95.4018 142.54 95.6093 145.616 95.9032 148.671C95.9342 148.988 96.0863 149.371 96.1133 149.726C96.2281 151.199 96.0592 153.009 96.4807 154.422C96.5207 154.554 96.7089 154.639 96.785 154.754C97.1498 155.556 94.9725 155.386 94.6 155.387C93.164 155.394 91.6932 155.41 90.2404 155.452C87.7589 155.522 85.2143 155.571 82.7174 155.458C82.4764 155.446 81.5547 155.235 81.4503 155.381L80.477 155.169L80.4783 155.167ZM80.9295 101.664C80.7206 101.462 80.3314 102.155 80.2656 102.301C80.1689 102.516 80.0826 102.952 79.9743 103.206C78.6246 106.361 77.2737 109.35 75.683 112.415C75.5592 112.653 74.7304 113.879 74.8825 114.04L81.672 114.116C81.7326 113.997 81.7029 113.875 81.672 113.754C81.525 113.161 81.2092 112.552 81.0481 111.917C81.0287 111.84 80.9411 111.772 80.9321 111.683C80.7761 108.559 80.4293 105.204 80.9243 102.12C80.9475 101.973 80.9217 101.815 80.9282 101.667L80.9295 101.664Z" fill="#5F4533"/>
<path d="M69.0198 90.0213C69.0405 90.0303 69.0534 90.0987 69.1036 90.1257C69.5187 90.3513 69.8332 90.3487 70.0021 90.9043C70.0911 91.1995 69.917 91.2988 69.841 91.5231C69.569 92.3249 69.2003 93.0003 68.8523 93.7712C65.2416 101.77 61.2313 109.741 58.3374 118.058C57.3371 120.933 56.3767 124.046 55.1753 126.779C54.9136 127.375 54.5024 127.931 54.3671 128.575C54.3748 128.811 55.2797 128.909 55.5272 129C56.3716 129.315 57.2404 129.906 57.988 130.333C59.1933 131.023 60.3341 131.89 61.5407 132.478C63.5413 133.452 65.5394 134.431 67.4137 135.548C68.3818 136.126 69.2854 136.829 70.2767 137.451C70.6943 137.714 71.3608 137.838 71.5838 138.395C71.6508 138.564 71.6173 139.113 71.5773 139.301C71.5657 139.354 71.4626 139.349 71.4175 139.438C70.6789 140.934 69.9235 142.749 69.0379 144.141C68.6022 144.826 67.9602 145.442 67.5284 146.128C67.2113 146.631 66.9986 147.205 66.6815 147.707C66.2612 148.375 65.6425 148.941 65.2081 149.572C64.7737 150.204 64.3728 151.327 63.6496 151.635C63.5104 151.694 63.4124 151.73 63.2552 151.72C61.921 151.637 59.2346 150.016 58.0151 149.291C56.6294 148.467 55.4537 147.582 54.1673 146.603C50.429 143.76 46.7216 140.575 42.9369 137.583C42.8286 137.47 42.7681 137.366 42.7474 137.207C42.6907 136.792 42.7204 135.889 42.7474 135.444C42.7616 135.208 42.8647 135.014 42.8828 134.806C43.0581 132.817 43.0865 130.815 43.3172 128.843C43.6356 126.124 43.8663 123.371 44.3046 120.689C44.7983 117.668 45.1722 114.686 45.4906 111.609C45.8786 107.848 47.0323 104.3 47.8869 100.647C48.7532 96.9449 49.7071 93.293 51.5247 89.8628L51.4293 88.7903L52.6926 88.5144C52.9723 88.5492 53.0715 88.8367 53.3616 88.905C57.4634 89.8563 61.7985 89.07 65.9867 89.3575C66.2922 89.3781 67.1262 89.4838 67.3892 89.5714C67.549 89.6243 67.6109 89.7506 67.7462 89.7764C68.3005 89.886 68.374 89.7081 69.0186 90.0175L69.0198 90.0213Z" fill="#5F4533"/>
<path d="M110.445 33.269C111.164 33.5616 112.031 33.7524 112.776 34.0643C113.329 34.2964 113.797 34.7102 114.334 34.9667C115.188 35.3753 116.209 35.6641 117.016 36.0121C119.132 36.9222 121.434 38.1739 123.533 39.3392C126.073 40.7507 128.438 42.3711 131.078 43.8032C134.458 45.6376 138.566 47.6575 140.417 51.4809C140.564 51.7838 140.822 52.253 140.889 52.641C140.982 53.1786 140.968 54.2137 140.671 54.67C140.416 55.0632 139.456 55.4744 139.034 55.7064C137.335 56.6436 135.632 57.4905 133.826 58.126C133.149 58.3632 132.228 58.6236 131.471 58.4728C131.42 58.4625 130.571 58.1337 130.506 58.1028C129.835 57.787 129.201 57.0935 128.464 57.0161L128.392 56.4206C127.976 56.1408 127.573 55.8585 127.153 55.5853C125.148 54.2781 123.707 53.1412 121.857 51.633C120.749 50.7294 120.094 50.264 118.889 49.5563C117.495 48.7378 116.216 47.3288 114.927 46.3324C114.283 45.8812 113.502 46.7732 113.062 47.2063C111.736 48.516 110.283 50.8686 109.579 52.5817C109.279 53.3152 108.751 54.5514 108.638 55.37C108.585 55.7554 108.885 56.2285 108.834 56.6114C108.802 56.855 108.487 57.3358 108.438 57.5575C107.832 60.2646 107.832 61.5433 105.891 63.7798C104.318 65.5923 102.842 66.9355 100.51 67.7012C99.1633 67.8945 97.8407 67.6496 96.5942 67.2629C93.5481 66.3193 91.7202 64.5159 89.5804 62.1621C87.4264 59.7928 85.5237 57.1502 83.8582 54.4045C82.9095 52.8408 82.0188 50.7435 80.8844 49.3604C80.6678 49.0961 80.4487 49.1064 80.2592 48.9337C79.9936 48.6939 79.4264 47.4758 79.1712 47.352C79.0488 47.2927 78.9314 47.3391 78.8386 47.294C78.5086 47.1354 77.3575 45.0639 77.0352 44.5986C75.6057 42.5335 73.8396 40.8332 71.7527 39.4397C71.0063 38.9409 70.0936 38.5967 69.5032 37.8916C69.2506 37.5886 69.0379 37.1968 69.208 36.7843C69.23 36.7314 69.8281 36.2454 69.9209 36.1281C69.9737 36.0624 69.9402 35.9257 69.9815 35.8716C70.6647 34.9834 71.0901 35.1381 72.0736 34.8352C74.684 34.0295 76.9076 32.8771 79.7655 33.1839C80.2991 33.2406 80.8805 33.3618 81.4013 33.5165C81.5302 33.5552 81.6772 33.5075 81.7945 33.5332C81.8538 33.5461 81.8486 33.6518 81.8924 33.6725C82.3655 33.9006 82.6736 34.2422 82.9701 34.6908C83.2911 35.1768 83.1157 35.6615 83.1841 36.1642C83.224 36.453 83.4844 36.9145 83.5282 37.1568C83.5914 37.5087 83.4664 37.9857 83.5463 38.3337C83.594 38.54 83.8647 38.9899 83.9356 39.2103C84.0761 39.6511 84.1663 40.2351 84.321 40.6527C84.7232 41.7291 85.4747 42.4729 85.6449 43.6885C85.7055 44.1165 85.4502 44.8035 85.8537 45.042C85.8898 45.2844 85.7996 45.6363 85.8537 45.8593C85.8666 45.9134 85.98 45.9018 85.9916 45.956C86.4235 47.905 87.5527 49.6813 88.5414 51.517L88.7232 51.5402C88.6561 51.905 88.8998 51.9372 89.0197 52.1267C89.4373 52.7893 89.8034 53.5859 90.2868 54.2176C90.3474 54.2975 90.6013 54.4754 90.6155 54.5024C90.7058 54.67 90.4918 54.8673 90.8269 54.8544C91.0267 55.0993 91.4186 55.7451 91.639 55.941C91.7383 56.0287 91.9368 56.0777 92.0657 56.186C92.6277 56.6603 93.1176 57.3332 93.9168 57.5666C94.4299 57.7161 94.8668 57.7045 95.376 57.7947C95.5333 57.8231 95.6635 57.9636 95.8788 57.9958C96.5736 58.0989 97.084 57.8218 97.6873 57.5807L97.7415 57.3783C98.0921 57.426 98.3667 57.1618 98.3009 56.8086C98.6528 56.931 98.9803 56.3174 99.086 56.2594C99.162 56.2182 99.2871 56.2633 99.376 56.2337C99.4843 56.1976 99.4972 55.923 99.8388 56.0235L99.8581 55.8353L100.06 55.7825V55.477C100.361 55.4486 100.607 55.1908 100.829 54.9974C100.816 54.6533 100.851 54.3026 100.829 53.9597C100.784 53.2907 100.617 52.1757 100.448 51.5273C100.241 50.7306 99.7318 50.09 99.474 49.3385C98.8694 47.5699 98.9042 45.6466 98.5819 43.8303C98.3435 42.4871 98.1772 42.005 98.3641 40.596C98.5149 39.4616 98.6696 38.3299 98.9093 37.2032C99.0151 36.7069 99.1491 36.0134 99.3953 35.5803C99.6609 35.1136 101.591 33.2948 102.047 33.0653C104.084 32.0405 107.589 32.4427 109.747 33.0898C109.937 33.1465 110.35 33.2329 110.445 33.2729V33.269Z" fill="#5F4533"/>
<path d="M126.538 59.4331C126.579 59.4615 126.589 59.5775 126.678 59.6059C126.876 59.6703 127.48 59.513 127.543 59.8095C127.635 60.2414 127.418 60.2491 127.407 60.2981C127.389 60.3741 127.737 61.6065 127.797 61.7947C127.87 62.0164 128.264 62.4031 128.306 62.5514C128.406 62.8994 128.441 63.6045 128.554 64.0621C128.768 64.9207 129.311 66.1079 129.442 66.9007C129.647 68.1317 129.303 69.89 129.446 71.1868C129.473 71.4292 129.605 71.6212 129.641 71.8352C129.802 72.7724 129.966 73.6876 130.258 74.5925L131.26 75.6444C132.426 75.7424 133.541 76.0711 133.666 74.5629C133.732 73.7765 133.712 73.1294 133.807 72.3122C133.993 70.7086 133.552 69.1114 133.317 67.5955C133.222 66.9819 133.554 66.3296 134.074 66.0241C135.019 65.4698 135.908 65.4028 136.929 65.2391C137.496 65.1475 138.236 64.6912 138.807 64.5159C139.731 64.2336 141.17 64.0041 142.138 64.115C142.642 64.173 143.102 64.4128 143.688 64.3316C143.922 64.2993 144.297 63.9977 144.629 63.9358C145.995 63.6819 147.559 64.57 148.572 65.4157C149.585 66.2613 149.697 67.1056 150.374 68.1846C150.771 68.8175 151.279 69.3757 151.659 70.0086C151.925 70.4495 152.901 72.6963 153.091 72.8149C153.157 72.8561 153.278 72.8291 153.345 72.8742C153.528 72.9992 153.878 73.2635 153.947 73.4697C154.065 73.8165 154.112 74.4817 154.228 74.8761C154.646 76.2941 155.231 77.1333 155.547 78.6892C155.591 78.9057 155.828 79.3079 155.878 79.5528C156.182 81.0275 155.965 82.3411 156.095 83.7668C156.283 85.8331 156.779 87.8235 156.871 89.9517C156.938 91.5347 156.761 93.1035 156.657 94.6645C156.418 98.2056 156.373 101.749 156.166 105.283C156.088 106.609 156.01 107.794 155.649 109.054C155.56 109.366 155.587 109.561 155.363 109.859C155.03 110.3 154.74 110.144 154.315 110.24C154.253 110.254 154.257 110.363 154.218 110.379C152.426 111.15 151.57 110.641 149.796 110.242C149.62 110.202 149.392 110.256 149.184 110.221C148.317 110.074 146.164 108.826 145.548 108.162C145.166 107.751 145.344 107.394 145.898 107.425C146.044 106.987 145.612 106.747 145.552 106.401C145.467 105.918 145.622 105.667 145.684 105.277C145.758 104.809 145.807 104.041 145.915 103.611C145.96 103.431 146.293 102.961 146.32 102.82C146.9 99.7357 146.022 96.125 146.32 92.9784C146.413 91.9949 146.669 90.8631 146.74 89.8834C146.802 89.0429 146.668 88.1148 146.74 87.2821C147.073 83.4909 148.484 80.0942 146.316 76.5274C145.842 75.7462 144.966 74.6054 143.961 74.657C143.737 74.6686 143.642 74.7652 143.467 74.7988C142.98 74.8916 142.293 74.9805 141.839 75.2087C141.188 75.5361 141.174 76.2129 140.81 76.6769C140.515 77.052 140.471 76.869 140.254 77.4181C139.467 79.402 139.033 80.8857 138.649 82.9882C138.243 85.2105 137.245 89.9736 135.035 91.1183C134.335 91.4805 133.597 91.4947 132.857 91.612C131.092 91.8892 128.335 92.1792 126.944 90.8386C125.004 88.9694 123.466 86.3307 122.978 83.6933C122.406 80.615 121.476 77.7249 121.289 74.5538C121.172 72.5622 121.125 70.5126 121.072 68.5133C121.043 67.4034 121.228 66.5397 121.29 65.4891C121.413 63.3944 121.163 61.8849 121.618 59.7696C121.699 59.3932 121.663 59.156 122.057 58.9394C122.504 58.7821 122.494 59.2862 122.622 59.37C122.649 59.388 123.189 59.6071 123.222 59.6136C123.894 59.7464 124.491 59.2617 125.12 59.1921C125.611 59.1379 126.123 59.1469 126.537 59.4293L126.538 59.4331Z" fill="#5F4533"/>
<path d="M122.397 92.8946C122.417 92.9023 122.424 92.9887 122.467 93.0132C123.189 93.4089 123.909 93.9413 124.575 94.35C125.307 94.7998 126.654 95.3425 127.155 96.0438C127.378 96.3557 127.436 96.7334 127.636 97.0415C127.929 97.4953 128.153 97.2852 127.96 98.105C127.694 99.2381 126.508 100.732 125.898 101.741C125.498 102.404 125.094 103.608 124.43 104.102C124.299 104.2 123.986 104.201 123.9 104.452C124.025 104.657 124.06 104.888 124.14 105.106C124.584 106.318 125.396 107.379 126.07 108.434C126.277 108.759 126.445 109.11 126.637 109.413C127.023 110.021 127.663 110.425 128.199 110.895L128.598 110.837C129.108 109.975 129.878 109.275 130.383 108.405C130.757 107.761 130.967 106.989 131.413 106.412C131.606 106.324 131.822 106.377 132.014 106.441C133.028 106.784 134.488 108.066 135.427 108.726C135.661 108.889 136.22 109.143 136.448 109.351C136.643 109.527 136.783 109.873 137.04 110V110.135C136.795 110.207 136.886 110.416 136.803 110.572C136.789 110.597 136.712 110.608 136.689 110.648C135.122 113.402 133.162 116.234 130.985 118.623C130.708 118.927 129.803 119.666 129.74 120.001C129.7 120.221 129.846 120.39 129.865 120.612C130.016 122.319 130.203 123.684 131.03 125.213C131.342 125.789 131.82 125.978 132.089 126.368C132.466 126.918 132.234 127.631 133.024 126.708C134.793 124.643 136.718 122.365 138.227 120.117C139.231 118.622 139.869 116.968 141.072 115.61C141.351 115.297 141.773 114.854 142.152 114.724L142.241 114.39L143.166 114.819C144.935 115.921 148.589 115.51 149.95 117.153C149.994 117.205 149.958 117.34 150.044 117.446C150.369 117.844 151.064 117.927 150.741 118.693C150.701 118.788 150.391 119.13 150.343 119.219C149.207 121.38 148.246 123.128 146.67 124.991C145.579 126.283 144.554 127.554 143.501 128.885C142.516 130.131 140.556 131.474 139.334 132.595C137.465 134.311 135.744 136.333 133.9 138.041C133.01 138.865 132.127 139.639 131.316 140.516C129.487 142.495 127.674 144.453 125.561 146.101C125.473 146.169 125.338 146.383 125.268 146.426C125.215 146.458 124.661 146.669 124.626 146.667L124.481 146.594C124.477 146.281 124.341 146.083 124.232 145.803C123.863 144.863 123.835 144.091 123.657 143.059C123.121 139.943 122.427 136.852 121.851 133.755C121.425 131.471 120.744 129.246 120.285 126.954C119.885 124.959 119.358 122.953 118.958 120.968C118.807 120.216 118.769 119.563 118.617 118.849C118.116 116.515 117.447 114.097 116.851 111.755C116.558 110.605 116.322 109.48 115.962 108.354C115.858 108.026 115.908 107.729 115.516 107.516L115.59 107.074L115.38 107.215C115.364 106.744 115.381 106.166 115.305 105.707C115.217 105.178 114.868 104.592 114.761 104.071C114.698 103.76 114.681 102.875 114.784 102.578C114.909 102.218 115.275 102.363 115.516 102.029C115.607 101.904 115.67 101.651 115.73 101.57C115.899 101.344 116.231 101.014 116.43 100.71C117.347 99.3064 117.699 97.6087 118.712 96.3467C119.123 95.8337 119.846 95.3606 120.218 94.8669C120.537 94.4428 121.108 93.1782 121.527 92.9397C121.679 92.8534 122.241 92.8276 122.392 92.8933L122.397 92.8946Z" fill="#5F4533"/>
<path d="M91.4418 100.363C91.407 100.598 91.3709 100.833 91.3361 101.066" stroke="#5F4533" stroke-width="2" stroke-linecap="round" stroke-linejoin="round"/>
</g>
</g>
<defs>
<clipPath id="clip0_212_1066">
<rect width="144" height="144" fill="white" transform="translate(18 22)"/>
</clipPath>
</defs>
</svg>
